<?xml version="1.0" encoding="UTF-8" ?>
<!DOCTYPE svg PUBLIC "-//W3C//DTD SVG 1.1//EN" "http://www.w3.org/Graphics/SVG/1.1/DTD/svg11.dtd">
<svg width="319pt" height="280pt" viewBox="0 0 319 280" version="1.1" xmlns="http://www.w3.org/2000/svg">
<g id="#000000ff">
<path fill="#000000" opacity="1.00" d=" M 145.29 3.09 C 146.80 2.63 148.40 2.73 149.96 2.68 C 160.65 2.73 171.35 2.74 182.04 2.67 C 186.41 2.42 190.36 4.69 194.64 5.21 C 204.24 7.52 215.04 9.30 221.91 17.08 C 225.41 20.61 229.08 23.99 231.92 28.11 C 236.70 32.79 239.36 39.17 244.25 43.76 C 246.21 45.93 246.73 49.06 248.91 51.09 C 251.40 53.46 251.89 57.21 254.56 59.44 C 258.30 62.57 259.36 67.75 263.24 70.79 C 267.65 77.71 273.16 84.04 276.51 91.61 C 279.41 100.73 284.44 108.95 288.55 117.56 C 293.31 127.87 298.14 138.17 302.41 148.68 C 304.63 152.22 305.28 156.41 306.92 160.20 C 311.57 171.67 314.59 183.74 316.23 195.99 C 316.46 200.43 316.51 204.93 315.55 209.31 C 315.06 219.70 310.73 229.53 305.39 238.32 C 303.45 241.93 299.99 244.32 297.73 247.69 C 294.65 252.40 289.31 254.66 285.11 258.16 C 281.67 260.35 278.31 262.63 275.44 265.53 C 264.47 269.12 253.05 271.32 241.82 273.99 C 230.68 276.25 219.38 277.83 208.00 277.29 C 201.92 278.01 196.06 275.80 190.00 276.27 C 172.67 276.34 155.33 276.23 138.00 276.32 C 132.68 276.62 127.51 275.14 122.21 274.96 C 104.02 273.02 85.87 269.65 68.56 263.57 C 63.56 262.06 58.35 260.96 53.77 258.32 C 49.35 255.64 43.73 254.91 40.42 250.60 C 34.48 247.48 28.75 243.76 24.06 238.91 C 20.06 233.60 15.19 228.99 11.42 223.50 C 9.60 220.49 9.83 216.77 8.23 213.66 C 5.98 209.44 6.83 204.58 6.71 200.01 C 6.21 190.69 8.52 181.50 11.64 172.80 C 14.56 164.99 17.25 156.44 24.02 151.03 C 25.89 147.07 29.46 144.29 31.14 140.24 C 32.27 137.23 35.42 135.59 36.38 132.51 C 37.90 128.06 42.00 125.21 43.79 120.90 C 45.65 116.66 49.68 113.92 51.62 109.72 C 53.34 105.94 56.88 103.31 58.22 99.33 C 59.12 96.19 62.46 94.63 63.39 91.51 C 64.45 88.47 66.56 85.99 68.12 83.22 C 73.83 72.62 79.70 62.12 85.50 51.58 C 88.49 44.85 92.74 38.81 96.36 32.43 C 97.53 29.79 100.90 29.75 102.63 27.64 C 111.93 17.01 124.99 10.54 138.16 6.03 C 140.64 5.30 142.85 3.91 145.29 3.09 M 139.68 9.81 C 138.13 10.44 136.15 10.49 135.02 11.84 C 140.35 11.81 145.69 11.51 151.01 11.77 C 161.78 13.14 172.76 15.81 181.74 22.19 C 183.15 23.45 185.76 24.78 185.07 27.05 L 184.19 27.20 C 173.38 20.23 160.74 16.55 148.02 15.27 C 139.48 15.66 130.49 14.03 122.39 17.48 C 118.34 19.94 114.12 22.35 110.91 25.90 C 107.90 28.95 104.24 31.23 101.05 34.06 C 95.81 40.75 91.41 48.05 87.85 55.77 C 82.08 65.19 76.75 74.87 71.87 84.78 C 66.41 93.64 61.44 102.79 55.24 111.17 C 53.73 113.63 52.42 116.26 50.40 118.37 C 46.50 122.38 44.68 127.84 41.15 132.12 C 39.15 134.55 38.27 137.73 35.92 139.91 C 33.64 142.15 32.93 145.43 30.91 147.86 C 29.22 149.90 27.75 152.11 26.52 154.45 C 24.84 157.65 21.43 159.59 20.14 163.05 C 17.68 168.68 15.38 174.39 13.31 180.17 C 11.01 188.81 9.57 197.80 10.43 206.76 C 11.29 210.90 13.40 214.64 14.43 218.74 C 15.80 224.04 20.62 227.15 23.60 231.44 C 30.07 239.51 38.65 245.69 48.09 249.82 C 57.34 253.93 66.35 258.70 76.07 261.66 C 74.34 252.83 71.19 244.10 71.70 235.00 C 71.86 231.39 71.37 227.74 71.93 224.16 C 72.82 221.89 73.64 219.60 74.00 217.17 C 77.49 209.84 84.57 205.03 91.74 201.63 C 93.69 200.72 95.86 200.66 97.97 200.68 C 103.38 200.81 108.87 200.24 114.17 201.60 C 124.88 203.27 135.62 204.80 146.33 206.46 C 154.31 208.04 161.74 211.49 169.12 214.79 C 177.66 220.90 182.92 230.98 183.83 241.38 C 185.73 248.33 185.27 255.93 188.64 262.43 C 190.46 265.18 193.16 267.20 195.37 269.62 C 197.46 272.12 200.86 272.83 203.97 272.74 C 210.99 272.71 218.02 272.68 225.04 272.75 C 229.45 272.89 233.62 271.23 237.97 270.76 C 247.44 268.99 256.81 266.70 266.04 263.91 C 268.17 262.69 270.05 260.99 272.49 260.32 C 283.17 256.38 291.49 248.27 299.00 240.02 C 304.88 232.19 309.13 223.10 311.38 213.58 C 311.60 208.07 313.41 202.67 312.62 197.13 C 311.02 186.57 308.84 176.01 304.79 166.08 C 302.63 161.07 301.55 155.66 299.16 150.74 C 292.19 135.18 285.27 119.61 277.46 104.44 C 274.26 96.95 271.04 89.35 266.23 82.72 C 263.42 78.85 261.38 74.43 257.83 71.15 C 255.66 67.68 253.64 64.13 250.80 61.15 C 248.13 56.25 244.43 52.05 241.79 47.14 C 240.29 44.70 237.89 42.98 236.39 40.54 C 232.72 34.73 228.77 28.99 223.59 24.40 C 219.92 21.12 217.07 16.57 212.23 14.89 C 205.65 12.14 198.85 9.84 191.87 8.40 C 187.14 8.39 182.79 5.96 178.03 6.24 C 169.68 6.32 161.33 6.29 152.97 6.25 C 148.28 6.16 144.13 8.71 139.68 9.81 Z" />
<path fill="#000000" opacity="1.00" d=" M 8.19 39.91 C 8.59 39.93 9.40 39.98 9.81 40.00 C 10.46 43.20 12.24 45.99 13.33 48.99 C 12.05 52.65 10.76 56.31 9.87 60.09 C 9.44 60.08 8.58 60.05 8.15 60.04 C 8.38 55.60 3.42 52.64 4.89 48.19 C 5.88 45.39 7.03 42.65 8.19 39.91 M 8.21 46.11 C 7.59 48.00 5.98 52.14 8.83 52.69 C 9.69 51.60 10.36 50.35 10.72 49.00 C 10.46 47.65 9.23 46.87 8.21 46.11 Z" />
<path fill="#000000" opacity="1.00" d=" M 47.12 48.92 C 47.57 48.92 48.48 48.90 48.94 48.90 C 49.67 52.57 49.77 56.42 51.11 59.95 C 52.05 62.30 55.28 62.65 56.19 64.94 C 54.24 66.26 51.81 66.60 49.84 67.86 C 47.79 69.65 47.84 72.66 46.84 75.02 C 45.53 75.35 44.20 75.38 42.86 75.12 C 41.86 72.39 43.66 70.35 45.53 68.66 C 45.75 65.18 40.28 66.03 41.08 62.52 C 41.12 62.22 41.20 61.61 41.24 61.31 C 46.36 59.65 45.74 53.14 47.12 48.92 M 47.33 66.64 C 48.58 65.90 49.76 65.06 50.86 64.11 C 49.61 62.28 48.52 60.35 47.66 58.31 C 45.29 60.55 44.85 64.28 47.33 66.64 Z" />
<path fill="#000000" opacity="1.00" d=" M 208.88 50.87 C 210.80 51.38 211.27 53.44 212.23 54.92 C 226.87 77.23 236.66 102.34 244.35 127.78 C 248.57 145.95 253.89 164.11 254.39 182.86 C 255.66 189.17 255.87 195.83 254.36 202.12 C 253.98 203.28 253.55 205.51 251.87 205.13 C 251.20 198.40 252.56 191.55 250.87 184.93 C 250.60 173.92 248.61 163.09 246.52 152.29 C 245.14 147.26 243.62 142.26 242.67 137.12 C 239.54 122.13 233.91 107.81 228.27 93.62 C 226.46 90.27 225.73 86.45 223.70 83.22 C 221.37 79.24 219.52 74.98 218.31 70.53 C 215.69 63.74 211.46 57.68 208.88 50.87 Z" />
<path fill="#000000" opacity="1.00" d=" M 28.15 91.01 C 30.38 89.89 30.40 92.75 31.08 94.10 C 31.75 96.84 33.69 98.89 35.37 101.04 C 33.74 102.75 31.07 103.73 30.27 106.08 C 30.89 108.72 31.76 111.40 31.11 114.15 C 29.54 114.43 27.73 114.46 26.92 112.81 C 26.50 110.04 26.89 107.22 26.60 104.44 C 25.91 102.35 22.83 102.89 22.08 101.19 C 25.06 98.40 28.08 95.41 28.15 91.01 M 26.44 100.24 C 26.39 101.58 28.02 102.25 29.00 102.86 C 29.98 102.37 30.83 101.67 31.60 100.90 C 31.15 99.61 30.41 98.44 29.64 97.32 C 28.44 98.14 27.33 99.10 26.44 100.24 Z" />
<path fill="#000000" opacity="1.00" d=" M 103.02 92.93 C 104.45 93.32 105.97 93.88 106.74 95.26 C 108.44 97.95 111.40 99.89 112.15 103.11 C 112.69 107.51 111.69 112.01 112.82 116.36 C 113.92 120.62 112.63 125.10 113.83 129.35 C 114.49 131.91 114.46 134.57 114.10 137.17 C 113.60 137.16 112.61 137.13 112.12 137.12 C 110.36 133.42 109.91 129.32 109.44 125.32 C 107.88 118.12 109.24 110.72 108.58 103.44 C 107.17 101.48 104.36 100.87 103.41 98.50 C 102.52 96.75 100.82 94.46 103.02 92.93 Z" />
<path fill="#000000" opacity="1.00" d=" M 157.02 95.93 C 158.44 96.34 159.96 96.88 160.73 98.25 C 162.76 101.37 166.60 103.80 166.30 107.97 C 166.08 113.34 166.32 118.67 167.29 123.96 C 166.57 129.44 169.13 134.71 168.09 140.17 C 165.49 140.96 165.36 137.90 164.58 136.23 C 163.59 133.70 163.85 130.94 163.46 128.30 C 161.84 121.12 163.27 113.72 162.57 106.46 C 161.43 104.59 158.85 104.12 157.80 102.15 C 156.86 100.23 154.61 97.69 157.02 95.93 Z" />
<path fill="#000000" opacity="1.00" d=" M 71.53 139.46 C 73.79 138.05 76.40 137.23 79.07 137.85 L 79.14 138.85 C 73.80 141.64 68.10 143.86 62.85 146.88 C 61.53 147.58 60.57 149.48 58.88 149.11 C 58.88 148.39 58.89 146.94 58.89 146.22 C 62.51 142.97 67.42 141.91 71.53 139.46 Z" />
<path fill="#000000" opacity="1.00" d=" M 79.00 150.33 C 82.92 146.25 88.39 143.23 94.07 142.79 C 94.48 144.43 92.41 144.84 91.41 145.53 C 87.08 147.40 83.83 151.88 78.87 152.09 C 78.90 151.65 78.96 150.77 79.00 150.33 Z" />
<path fill="#000000" opacity="1.00" d=" M 132.12 145.24 C 133.05 143.46 135.57 141.55 137.33 143.49 C 141.55 147.98 145.86 153.41 145.32 159.97 C 144.98 164.24 146.31 169.02 143.88 172.86 C 143.24 174.06 142.26 174.48 140.92 174.12 C 140.76 171.90 142.70 170.13 142.68 167.91 C 142.65 162.23 143.74 155.81 140.01 150.96 C 138.40 149.04 137.32 146.54 135.17 145.17 C 130.96 151.08 132.75 158.46 132.10 165.17 C 131.55 165.17 130.45 165.17 129.90 165.17 C 129.77 158.52 128.54 151.27 132.12 145.24 Z" />
<path fill="#000000" opacity="1.00" d=" M 181.48 155.43 C 184.34 154.03 186.88 151.14 190.07 150.94 C 190.81 153.90 187.09 154.98 185.16 156.26 C 181.73 157.85 179.04 161.61 174.93 161.24 C 175.64 158.16 179.24 157.21 181.48 155.43 Z" />
<path fill="#000000" opacity="1.00" d=" M 193.06 162.33 C 196.48 160.15 200.04 157.39 204.12 156.89 C 204.13 157.37 204.15 158.32 204.16 158.80 C 201.24 160.91 197.84 162.26 194.82 164.25 C 194.34 164.21 193.39 164.14 192.91 164.11 C 192.95 163.66 193.02 162.77 193.06 162.33 Z" />
<path fill="#000000" opacity="1.00" d=" M 133.88 171.93 C 136.17 171.94 139.53 173.91 140.03 176.17 C 137.85 176.60 135.70 175.98 133.85 174.82 C 133.86 174.10 133.87 172.65 133.88 171.93 Z" />
</g>
</svg>
