<?xml version="1.0" encoding="UTF-8" ?>
<!DOCTYPE svg PUBLIC "-//W3C//DTD SVG 1.1//EN" "http://www.w3.org/Graphics/SVG/1.1/DTD/svg11.dtd">
<svg width="317pt" height="280pt" viewBox="0 0 317 280" version="1.1" xmlns="http://www.w3.org/2000/svg">
<g id="#000000ff">
<path fill="#000000" opacity="1.00" d=" M 142.32 3.18 C 147.46 2.15 152.79 2.98 158.00 2.74 C 166.27 2.96 174.59 2.27 182.83 3.05 C 193.70 6.31 205.69 7.03 215.27 13.69 C 220.35 18.28 225.19 23.19 229.40 28.61 C 233.77 33.35 236.67 39.21 241.20 43.81 C 243.30 47.04 245.20 50.40 247.56 53.46 C 249.80 58.36 254.27 61.65 256.63 66.47 C 261.76 72.76 266.31 79.51 270.75 86.31 C 273.86 91.01 274.87 96.66 277.48 101.59 C 282.91 112.30 288.35 123.02 293.05 134.07 C 301.53 152.79 309.68 172.04 312.68 192.52 C 314.22 200.21 312.77 208.02 311.78 215.67 C 309.74 224.83 305.85 233.68 300.28 241.25 C 297.32 244.32 294.81 247.80 291.90 250.91 C 285.89 256.00 278.76 259.66 272.95 265.01 C 271.50 266.18 269.61 266.52 267.87 267.03 C 250.44 271.27 233.01 276.18 215.02 277.29 C 207.33 277.18 199.58 277.75 191.96 276.34 C 174.31 276.16 156.65 276.32 138.99 276.27 C 129.62 276.75 120.41 274.66 111.09 274.03 C 101.03 272.33 90.83 271.18 81.06 268.11 C 76.32 267.02 71.62 265.76 67.06 264.06 C 62.08 262.33 56.81 261.43 52.11 258.97 C 47.20 256.14 41.35 254.93 37.34 250.69 C 31.22 247.01 24.82 243.38 20.18 237.80 C 16.70 233.29 12.65 229.26 9.25 224.68 C 6.71 221.24 6.75 216.74 4.97 212.95 C 3.11 208.87 3.84 204.33 3.70 200.01 C 3.18 186.77 7.75 174.02 12.94 162.05 C 14.52 158.22 16.98 154.80 20.01 151.99 C 24.78 146.31 28.24 139.71 32.69 133.82 C 34.36 129.73 37.34 126.47 39.74 122.83 C 42.50 117.15 47.30 112.84 50.19 107.22 C 53.72 103.18 55.40 97.97 58.95 93.98 C 65.68 82.03 72.48 70.09 78.92 57.98 C 84.15 48.90 88.48 39.16 94.82 30.80 C 100.59 28.16 103.75 22.29 109.07 19.01 C 115.06 15.11 121.13 11.18 127.91 8.78 C 132.74 6.98 137.53 5.06 142.32 3.18 M 131.83 11.73 C 137.22 11.94 142.62 11.47 148.00 11.82 C 158.78 13.14 169.74 15.85 178.72 22.20 C 180.34 23.51 182.54 24.87 182.25 27.27 C 177.19 25.56 172.94 21.98 167.81 20.35 C 159.12 17.66 150.20 14.91 141.00 15.24 C 133.79 15.45 126.16 14.38 119.40 17.50 C 115.23 19.78 111.20 22.44 107.87 25.87 C 103.77 30.11 98.04 32.73 95.08 38.05 C 89.48 45.20 86.32 53.79 81.48 61.41 C 74.05 73.51 68.51 86.69 60.52 98.46 C 57.14 104.61 52.79 110.12 49.12 116.09 C 42.71 123.61 38.57 132.72 32.47 140.48 C 27.97 147.24 24.05 154.47 18.59 160.53 C 16.20 164.11 14.99 168.29 13.31 172.21 C 8.91 182.17 6.87 193.16 7.23 204.03 C 7.24 209.24 10.09 213.83 11.42 218.75 C 12.88 223.98 17.50 227.25 20.59 231.46 C 27.05 239.53 35.63 245.70 45.08 249.85 C 54.34 253.93 63.33 258.74 73.06 261.67 C 71.70 255.09 69.94 248.58 68.91 241.93 C 68.50 237.63 68.80 233.30 68.68 228.99 C 68.39 224.62 70.24 220.58 71.36 216.46 C 75.05 209.50 81.79 204.91 88.77 201.68 C 92.64 200.07 96.93 200.89 101.00 200.69 C 107.09 200.37 112.97 202.19 118.98 202.85 C 126.27 203.76 133.49 205.13 140.78 206.07 C 149.23 207.21 157.03 210.80 164.77 214.16 C 170.33 217.15 174.23 222.47 177.10 227.97 C 180.27 233.91 180.48 240.78 181.93 247.23 C 183.16 253.34 182.96 260.54 187.85 265.14 C 190.98 267.99 193.60 272.21 198.21 272.60 C 204.11 273.05 210.04 272.43 215.95 272.90 C 222.97 273.60 229.84 271.57 236.72 270.48 C 245.32 268.68 253.92 266.80 262.29 264.11 C 264.98 262.86 267.40 261.07 270.20 260.05 C 278.50 256.78 285.59 251.09 291.63 244.64 C 297.18 239.58 301.10 233.02 304.10 226.21 C 306.13 221.31 308.36 216.33 308.68 210.96 C 308.83 206.33 310.24 201.78 309.65 197.14 C 308.01 185.79 305.43 174.52 300.98 163.92 C 296.78 150.28 290.18 137.58 284.26 124.65 C 280.49 115.34 275.11 106.78 271.46 97.42 C 266.25 85.10 257.49 74.88 250.09 63.91 C 245.33 57.89 241.66 51.08 237.08 44.94 C 233.57 41.30 231.18 36.82 228.18 32.79 C 224.49 27.57 219.48 23.51 215.15 18.86 C 211.73 15.10 206.59 13.92 202.05 12.08 C 193.98 9.03 185.41 7.84 176.98 6.30 C 167.07 6.33 157.13 6.03 147.24 6.44 C 142.03 7.94 136.78 9.51 131.83 11.73 Z" />
<path fill="#000000" opacity="1.00" d=" M 205.91 50.67 C 206.77 51.31 207.50 52.08 208.09 52.98 C 222.33 74.85 232.67 99.09 240.08 124.06 C 242.10 129.46 242.87 135.20 244.39 140.75 C 247.60 152.63 249.84 164.76 251.11 177.00 C 251.32 185.10 253.57 193.27 251.52 201.31 C 251.11 202.80 250.80 205.09 248.88 205.29 C 248.36 198.50 249.36 191.64 247.99 184.92 C 247.19 170.43 244.86 156.01 240.79 142.07 C 237.27 123.59 230.42 105.98 223.21 88.67 C 221.30 83.46 217.89 78.94 216.31 73.59 C 214.04 65.44 208.74 58.59 205.91 50.67 Z" />
<path fill="#000000" opacity="1.00" d=" M 100.02 82.08 C 104.59 83.40 111.42 84.59 112.29 90.17 C 106.92 91.22 101.48 88.35 98.48 83.96 C 98.87 83.49 99.63 82.55 100.02 82.08 Z" />
<path fill="#000000" opacity="1.00" d=" M 152.71 90.17 C 153.58 84.59 160.42 83.41 164.99 82.08 C 165.37 82.55 166.13 83.49 166.51 83.97 C 163.52 88.36 158.07 91.22 152.71 90.17 Z" />
<path fill="#000000" opacity="1.00" d=" M 191.89 86.78 C 192.44 86.79 193.56 86.79 194.11 86.79 C 194.20 90.96 195.32 95.84 192.37 99.33 C 190.07 101.95 187.46 104.96 183.75 105.28 C 183.52 102.06 187.49 101.36 189.16 99.15 C 192.89 96.09 191.39 90.94 191.89 86.78 Z" />
<path fill="#000000" opacity="1.00" d=" M 198.89 91.16 C 199.37 89.45 199.81 87.03 202.18 87.77 C 201.79 91.83 199.86 96.62 202.87 100.14 C 205.88 103.94 211.50 102.58 215.05 105.19 L 215.28 106.18 C 210.06 106.81 204.04 105.62 200.59 101.36 C 198.22 98.53 198.45 94.59 198.89 91.16 Z" />
<path fill="#000000" opacity="1.00" d=" M 101.01 94.81 C 105.17 96.45 107.56 100.71 109.89 104.29 C 110.84 108.62 109.75 113.16 110.65 117.53 C 111.66 122.09 110.87 126.80 111.79 131.36 C 112.33 133.95 112.42 136.61 112.16 139.24 C 111.65 139.21 110.64 139.15 110.13 139.12 C 105.91 128.41 106.94 116.67 106.61 105.42 C 103.72 103.10 100.74 100.69 99.74 96.93 C 100.06 96.40 100.69 95.34 101.01 94.81 Z" />
<path fill="#000000" opacity="1.00" d=" M 155.00 97.81 C 156.93 98.45 158.50 99.73 159.65 101.40 C 161.58 103.98 164.51 106.43 164.27 109.96 C 164.07 115.33 164.39 120.67 165.19 125.97 C 164.88 131.45 166.80 136.78 166.15 142.26 C 165.66 142.21 164.67 142.11 164.18 142.06 C 161.98 138.22 161.79 133.75 161.31 129.47 C 160.06 122.51 161.18 115.42 160.61 108.41 C 157.72 106.10 154.74 103.69 153.75 99.93 C 154.06 99.40 154.69 98.34 155.00 97.81 Z" />
<path fill="#000000" opacity="1.00" d=" M 191.84 106.61 C 199.03 104.07 206.85 109.58 209.17 116.33 C 206.67 116.77 205.48 114.41 204.05 112.88 C 202.22 110.67 199.68 109.08 196.92 108.36 C 192.84 108.80 188.94 110.56 184.78 110.23 C 185.32 107.25 189.48 107.42 191.84 106.61 Z" />
<path fill="#000000" opacity="1.00" d=" M 69.21 139.14 C 71.32 137.86 73.77 137.45 76.20 137.79 L 76.11 138.81 C 70.84 141.74 65.01 143.66 59.92 146.96 C 58.59 147.83 57.33 148.89 55.76 149.29 C 55.78 148.51 55.83 146.97 55.86 146.19 C 59.82 143.00 64.82 141.62 69.21 139.14 Z" />
<path fill="#000000" opacity="1.00" d=" M 129.58 144.65 C 130.51 143.07 132.86 141.72 134.30 143.52 C 138.60 147.93 142.75 153.45 142.31 159.97 C 142.00 164.68 143.56 170.40 139.78 174.12 C 139.28 174.15 138.27 174.22 137.77 174.25 C 140.19 168.62 140.17 162.39 139.45 156.41 C 138.38 151.96 135.37 148.22 132.19 145.05 C 128.01 151.02 129.64 158.43 129.13 165.21 C 128.57 165.21 127.45 165.21 126.89 165.21 C 126.82 158.35 125.44 150.66 129.58 144.65 Z" />
<path fill="#000000" opacity="1.00" d=" M 79.39 147.33 C 82.07 145.59 84.95 143.68 88.27 143.73 C 88.16 144.19 87.93 145.11 87.82 145.56 C 84.12 148.29 80.37 151.40 75.73 152.27 C 75.49 149.85 77.78 148.64 79.39 147.33 Z" />
<path fill="#000000" opacity="1.00" d=" M 178.48 155.44 C 181.34 153.79 183.96 151.50 187.23 150.73 C 187.74 153.81 184.18 154.82 182.18 156.27 C 178.74 158.00 175.85 161.43 171.74 161.29 C 172.92 158.35 176.08 157.17 178.48 155.44 Z" />
<path fill="#000000" opacity="1.00" d=" M 190.12 162.37 C 193.47 159.92 197.14 157.68 201.23 156.72 C 201.20 157.23 201.15 158.26 201.12 158.78 C 197.50 160.82 194.00 163.91 189.74 164.25 C 189.84 163.78 190.03 162.84 190.12 162.37 Z" />
<path fill="#000000" opacity="1.00" d=" M 130.79 171.71 C 133.38 172.28 136.09 173.76 137.30 176.23 C 135.02 176.52 132.82 175.93 130.82 174.86 C 130.81 174.08 130.80 172.50 130.79 171.71 Z" />
</g>
</svg>
