<svg xmlns="http://www.w3.org/2000/svg" width="53.333" height="50" viewBox="0 0 53.333 50">
  <path id="Path_147" data-name="Path 147" d="M-5-30h3.333v3.333H-5ZM5-10H8.333v3.333H5ZM15-30h3.333v3.333H15ZM5-30H8.333v3.333H5ZM-5-23.333h3.333V-20H-5Zm-10,0h3.333V-20H-15Zm30,0h3.333V-20H15Zm-10,0H8.333V-20H5ZM-5-16.667h3.333v3.333H-5Zm-10,0h3.333v3.333H-15Zm30,0h3.333v3.333H15Zm-10,0H8.333v3.333H5ZM-5-10h3.333v3.333H-5Zm-10,0h3.333v3.333H-15ZM28.333-46.667V0H-25V-46.667h10V-50h3.333v3.333H15V-50h3.333v3.333Zm-50,3.333v6.667H25v-6.667H18.333V-40H15v-3.333H-11.667V-40H-15v-3.333ZM25-3.333v-30H-21.667v30Z" transform="translate(25 50)" fill="#fff"/>
</svg>
