<?xml version="1.0" encoding="UTF-8" ?>
<!DOCTYPE svg PUBLIC "-//W3C//DTD SVG 1.1//EN" "http://www.w3.org/Graphics/SVG/1.1/DTD/svg11.dtd">
<svg width="317pt" height="281pt" viewBox="0 0 317 281" version="1.1" xmlns="http://www.w3.org/2000/svg">
<g id="#000000ff">
<path fill="#000000" opacity="1.00" d=" M 142.33 3.21 C 144.15 2.60 146.09 2.73 147.98 2.70 C 158.33 2.79 168.69 2.73 179.04 2.71 C 182.80 2.64 186.32 4.12 189.95 4.88 C 198.63 6.95 207.81 8.41 215.25 13.71 C 222.03 19.64 227.95 26.48 233.41 33.63 C 235.71 37.25 238.36 40.61 241.17 43.84 C 244.31 48.70 247.47 53.54 250.65 58.37 C 254.52 62.30 256.80 67.42 260.57 71.45 C 265.14 78.28 270.58 84.68 273.73 92.34 C 276.88 101.90 282.29 110.48 286.46 119.59 C 295.35 138.99 304.58 158.42 310.02 179.14 C 311.94 187.90 314.19 196.87 313.02 205.91 C 312.30 211.03 312.07 216.27 310.34 221.20 C 307.33 230.05 303.23 238.81 296.50 245.48 C 290.94 253.78 281.29 257.56 274.05 264.06 C 271.55 266.55 267.90 266.94 264.65 267.82 C 245.42 272.48 225.98 278.02 206.00 277.28 C 198.62 277.76 191.38 275.68 184.00 276.24 C 166.99 276.28 149.98 276.24 132.98 276.27 C 111.22 274.39 89.36 271.52 68.56 264.56 C 62.65 262.41 56.32 261.40 50.77 258.29 C 47.11 256.18 42.80 255.25 39.53 252.50 C 38.08 251.28 36.61 250.08 34.94 249.17 C 28.68 245.69 22.66 241.41 18.39 235.56 C 14.77 230.87 9.92 226.92 7.57 221.38 C 6.58 217.16 4.85 213.16 3.86 208.96 C 3.50 200.19 3.35 191.28 5.61 182.72 C 7.76 174.68 10.59 166.79 14.28 159.32 C 16.39 154.96 20.52 152.13 23.00 148.03 C 29.02 139.90 33.83 131.02 39.73 122.82 C 41.26 120.07 42.88 117.35 45.00 115.00 C 57.28 97.77 67.48 79.22 77.53 60.59 C 83.08 50.81 87.86 40.55 94.31 31.31 C 96.76 29.43 99.64 28.07 101.65 25.64 C 112.42 13.98 127.88 8.71 142.33 3.21 M 144.16 7.27 C 140.02 8.70 135.77 9.88 131.78 11.71 C 137.18 11.95 142.60 11.48 148.00 11.84 C 158.55 13.11 169.25 15.75 178.14 21.80 C 180.04 23.19 182.37 24.73 182.34 27.36 C 177.27 25.50 172.96 22.03 167.80 20.35 C 159.12 17.63 150.20 14.92 141.00 15.23 C 133.14 15.45 124.53 14.16 117.50 18.53 C 110.76 22.23 105.87 28.30 99.64 32.69 C 91.18 40.85 87.25 52.27 81.10 62.03 C 75.34 71.17 71.16 81.19 65.47 90.36 C 60.15 99.57 54.27 108.44 48.25 117.21 C 43.49 122.65 40.44 129.28 36.23 135.12 C 31.31 141.97 26.99 149.22 22.22 156.19 C 19.89 158.92 17.40 161.62 16.17 165.07 C 13.47 172.16 9.95 179.04 8.76 186.61 C 7.19 195.18 5.73 204.51 9.31 212.79 C 10.99 216.96 11.80 221.64 14.98 225.04 C 19.79 230.20 23.92 236.05 29.51 240.45 C 37.32 246.98 46.94 250.66 56.08 254.86 C 61.55 257.59 67.25 259.87 73.08 261.69 C 71.69 254.79 69.71 247.99 68.84 241.00 C 68.56 232.30 67.89 223.10 72.13 215.17 C 76.42 208.30 83.57 203.49 91.14 200.96 C 98.09 200.50 105.17 200.35 112.04 201.77 C 120.39 203.17 128.81 204.19 137.17 205.59 C 147.37 206.51 156.94 210.48 166.06 214.88 C 172.75 219.48 177.43 226.77 179.54 234.55 C 181.13 242.16 182.25 249.86 183.67 257.50 C 184.76 263.17 189.47 266.83 193.41 270.60 C 196.29 273.13 200.42 272.74 203.99 272.78 C 210.94 272.59 217.91 272.98 224.87 272.62 C 236.41 270.70 247.91 268.33 259.17 265.11 C 263.42 264.13 266.85 261.26 270.89 259.75 C 278.70 256.58 285.40 251.23 291.14 245.15 C 299.41 237.65 304.31 227.24 307.65 216.77 C 308.92 210.63 309.89 204.33 309.72 198.05 C 308.25 186.10 305.33 174.32 300.73 163.18 C 296.15 148.32 288.55 134.67 282.46 120.42 C 278.84 112.73 274.62 105.33 271.46 97.42 C 266.26 85.10 257.50 74.88 250.09 63.91 C 244.44 56.77 240.41 48.45 234.32 41.65 C 230.92 37.06 228.16 31.97 224.13 27.87 C 221.14 24.85 218.11 21.88 215.15 18.84 C 211.51 14.94 206.11 13.70 201.32 11.81 C 193.76 8.96 185.74 7.98 177.88 6.38 C 170.93 6.01 163.96 6.41 157.00 6.25 C 152.72 6.34 148.27 5.71 144.16 7.27 Z" />
<path fill="#000000" opacity="1.00" d=" M 205.92 50.59 C 208.19 52.61 209.53 55.38 211.15 57.90 C 224.63 79.53 234.05 103.43 241.27 127.81 C 245.59 145.65 250.53 163.52 251.39 181.96 C 252.22 189.35 253.52 197.34 250.39 204.36 C 250.02 204.63 249.28 205.18 248.90 205.45 C 248.53 200.96 248.86 196.46 248.74 191.96 C 247.51 177.61 246.38 163.16 242.71 149.17 C 240.62 142.57 239.61 135.71 237.81 129.04 C 233.95 115.24 228.74 101.87 223.23 88.67 C 221.27 83.48 217.93 78.92 216.33 73.59 C 214.02 65.42 208.74 58.55 205.92 50.59 Z" />
<path fill="#000000" opacity="1.00" d=" M 96.53 82.13 C 98.85 79.40 102.02 77.54 105.14 75.86 C 107.49 74.83 109.72 79.08 107.27 80.18 C 104.10 82.31 100.23 82.62 96.53 82.13 Z" />
<path fill="#000000" opacity="1.00" d=" M 149.73 83.17 C 147.27 82.09 149.51 77.82 151.86 78.86 C 154.99 80.53 158.14 82.41 160.47 85.13 C 156.77 85.62 152.90 85.32 149.73 83.17 Z" />
<path fill="#000000" opacity="1.00" d=" M 96.02 91.74 C 100.22 93.79 103.17 97.99 105.11 102.10 C 105.29 107.74 105.24 113.38 106.16 118.96 C 105.89 124.80 107.60 130.49 107.21 136.32 C 106.69 136.26 105.66 136.13 105.14 136.07 C 100.94 125.38 101.90 113.64 101.67 102.39 C 98.65 100.18 95.88 97.59 94.69 93.94 C 95.03 93.39 95.69 92.29 96.02 91.74 Z" />
<path fill="#000000" opacity="1.00" d=" M 150.02 94.75 C 154.23 96.78 157.17 100.99 159.12 105.10 C 159.42 110.74 159.01 116.42 160.08 122.01 C 159.99 127.83 161.57 133.52 161.21 139.34 C 160.70 139.26 159.69 139.10 159.19 139.01 C 156.83 134.95 156.81 130.15 156.19 125.64 C 155.19 118.92 156.08 112.13 155.66 105.39 C 152.65 103.19 149.88 100.59 148.70 96.94 C 149.03 96.39 149.69 95.30 150.02 94.75 Z" />
<path fill="#000000" opacity="1.00" d=" M 205.33 128.11 C 205.82 128.00 206.80 127.78 207.29 127.66 C 208.03 131.86 204.56 135.41 205.33 139.55 C 205.80 141.02 207.64 140.62 208.79 141.02 C 208.48 139.22 208.32 137.40 207.99 135.61 C 212.19 135.64 211.31 140.39 211.20 143.22 C 208.32 143.51 205.44 143.26 202.84 141.92 C 202.07 137.14 203.67 132.51 205.33 128.11 Z" />
<path fill="#000000" opacity="1.00" d=" M 69.90 138.83 C 71.85 137.64 74.13 137.66 76.33 137.75 L 76.04 138.78 C 72.81 140.82 69.11 142.01 65.72 143.77 C 62.20 145.31 59.17 147.71 55.72 149.39 C 55.74 148.58 55.79 146.96 55.82 146.15 C 60.11 143.00 65.23 141.34 69.90 138.83 Z" />
<path fill="#000000" opacity="1.00" d=" M 81.23 146.16 C 84.36 144.37 87.79 142.99 91.42 142.69 C 90.69 144.25 89.13 145.03 87.75 145.89 C 83.79 148.19 80.26 151.47 75.62 152.35 C 75.84 149.24 78.90 147.66 81.23 146.16 Z" />
<path fill="#000000" opacity="1.00" d=" M 122.61 158.31 C 123.72 154.18 126.86 151.08 130.03 148.42 C 133.69 151.63 136.68 155.73 138.39 160.30 C 133.86 160.10 133.03 154.37 130.01 151.76 C 127.37 153.76 126.35 158.31 122.61 158.31 Z" />
<path fill="#000000" opacity="1.00" d=" M 177.87 155.83 C 180.92 153.92 183.88 151.78 187.31 150.61 C 187.66 153.73 184.25 154.81 182.17 156.27 C 178.73 158.08 175.76 161.35 171.63 161.33 C 172.88 158.69 175.57 157.38 177.87 155.83 Z" />
<path fill="#000000" opacity="1.00" d=" M 190.16 162.40 C 193.46 159.79 197.25 157.79 201.30 156.64 C 201.25 157.17 201.13 158.22 201.08 158.74 C 197.51 160.97 193.92 163.77 189.64 164.34 C 189.77 163.86 190.03 162.88 190.16 162.40 Z" />
</g>
</svg>
