<?xml version="1.0" encoding="UTF-8" ?>
<!DOCTYPE svg PUBLIC "-//W3C//DTD SVG 1.1//EN" "http://www.w3.org/Graphics/SVG/1.1/DTD/svg11.dtd">
<svg width="327pt" height="305pt" viewBox="0 0 327 305" version="1.1" xmlns="http://www.w3.org/2000/svg">
<g id="#000000ff">
<path fill="#000000" opacity="1.00" d=" M 19.01 1.84 C 24.72 1.63 30.29 -0.26 36.05 0.44 C 46.06 1.56 56.68 4.61 63.40 12.62 C 68.06 17.34 69.30 24.02 70.97 30.18 C 72.15 35.48 70.34 40.79 69.02 45.89 C 68.34 49.14 65.52 51.12 63.38 53.39 C 61.51 55.21 60.11 57.44 58.26 59.27 C 55.94 61.04 53.51 62.66 51.03 64.19 C 54.52 72.26 54.65 81.19 54.14 89.83 C 49.80 90.88 45.80 93.85 41.17 93.24 C 38.75 92.31 37.67 89.76 37.50 87.33 C 36.00 76.97 31.25 66.89 32.99 56.25 C 35.49 53.58 39.01 52.18 41.65 49.66 C 44.96 46.78 47.43 42.95 48.66 38.75 C 48.60 33.20 47.18 27.02 42.65 23.36 C 39.34 20.71 34.91 20.16 30.85 19.50 C 26.81 19.66 21.73 21.03 20.46 25.44 C 19.48 29.90 21.45 34.42 24.18 37.88 C 26.13 40.10 25.00 43.21 25.14 45.86 C 19.85 47.87 13.50 49.98 8.20 46.86 C 3.22 42.37 1.41 35.45 0.50 29.04 C 0.49 23.25 -0.53 16.92 2.62 11.70 C 5.68 5.64 12.51 2.46 19.01 1.84 M 17.16 8.29 C 13.57 9.57 9.10 10.47 7.28 14.25 C 3.74 19.98 5.27 27.08 6.97 33.15 C 8.16 37.10 8.20 42.53 12.73 44.26 C 15.67 45.87 18.50 43.41 21.10 42.26 C 18.25 36.59 13.89 30.81 14.82 24.13 C 16.60 18.55 22.35 15.09 28.00 14.69 C 32.35 14.18 36.33 16.30 40.36 17.53 C 45.74 19.19 50.48 23.20 52.87 28.31 C 53.67 33.08 53.37 38.04 53.07 42.87 C 50.69 50.86 42.81 55.11 36.32 59.44 C 35.41 69.65 41.69 78.84 41.35 88.99 C 44.63 88.81 47.76 87.84 50.82 86.71 C 50.75 84.98 50.96 83.19 50.48 81.50 C 47.17 75.39 47.27 68.03 48.09 61.32 C 50.89 57.37 55.53 55.33 58.55 51.58 C 61.09 48.42 63.87 45.36 65.58 41.65 C 67.23 38.46 66.96 34.70 66.53 31.26 C 65.20 25.95 64.08 20.04 59.68 16.32 C 48.49 5.90 31.40 3.89 17.16 8.29 Z" />
<path fill="#000000" opacity="1.00" d=" M 155.32 29.19 C 160.79 28.12 166.45 29.00 172.00 28.74 C 179.93 28.97 187.92 28.26 195.82 29.06 C 206.70 32.30 218.70 33.03 228.27 39.69 C 236.20 46.82 243.32 54.89 249.25 63.77 C 251.20 66.78 254.08 69.08 255.79 72.26 C 257.74 75.91 260.54 79.00 262.44 82.67 C 264.75 86.01 267.84 88.76 269.62 92.48 C 274.65 98.55 279.00 105.13 283.36 111.69 C 286.97 116.96 288.02 123.41 291.14 128.93 C 299.76 145.42 307.29 162.43 314.55 179.54 C 316.44 185.25 318.78 190.80 320.59 196.55 C 323.37 204.81 324.83 213.43 326.35 222.00 C 327.47 228.60 325.36 235.11 324.77 241.66 C 322.21 252.84 317.20 263.78 309.06 272.01 C 303.59 280.07 294.08 283.66 287.06 290.07 C 285.41 291.78 283.12 292.49 280.87 293.03 C 263.44 297.28 246.01 302.16 228.03 303.30 C 220.92 303.06 213.74 303.86 206.70 302.53 C 202.82 302.01 198.90 302.29 195.00 302.27 C 178.32 302.25 161.64 302.28 144.96 302.27 C 130.81 300.85 116.67 299.24 102.73 296.41 C 93.58 294.10 84.45 291.73 75.52 288.65 C 68.63 287.27 62.68 283.44 56.24 280.85 C 53.26 279.73 51.32 277.05 48.58 275.53 C 42.07 271.99 35.80 267.61 31.38 261.55 C 27.16 256.01 20.85 251.40 19.65 244.14 C 18.86 240.38 16.63 236.96 16.71 233.04 C 16.72 228.68 16.62 224.32 16.78 219.96 C 17.49 210.35 20.58 201.13 24.14 192.24 C 25.97 187.95 27.70 183.43 31.03 180.04 C 36.85 174.31 40.36 166.80 45.32 160.42 C 46.85 157.64 48.18 154.74 50.28 152.31 C 52.98 149.19 54.32 145.17 57.08 142.09 C 60.33 138.53 62.32 134.09 65.28 130.32 C 67.33 127.87 68.21 124.71 70.19 122.22 C 73.45 118.57 74.89 113.78 77.74 109.84 C 84.81 96.89 92.16 84.09 98.90 70.96 C 101.28 67.00 103.63 63.03 106.00 59.07 C 107.57 55.88 111.51 55.31 113.65 52.65 C 124.50 40.36 140.44 34.85 155.32 29.19 M 144.72 37.73 C 150.14 37.92 155.57 37.47 160.99 37.84 C 171.09 39.03 181.27 41.51 189.95 47.00 C 192.37 48.56 195.13 50.39 195.51 53.52 C 190.22 51.35 185.56 47.83 180.07 46.10 C 171.61 43.53 162.95 40.91 154.01 41.23 C 147.49 41.40 140.81 40.63 134.48 42.63 C 127.68 45.20 122.46 50.44 117.13 55.18 C 106.81 61.96 102.14 73.93 96.36 84.30 C 89.41 94.99 84.42 106.78 77.74 117.62 C 72.76 126.21 67.21 134.42 61.69 142.66 C 56.49 148.69 53.01 155.91 48.44 162.39 C 43.19 169.28 39.22 177.06 33.86 183.87 C 30.03 187.53 28.58 192.75 26.60 197.50 C 21.65 208.74 19.19 221.31 20.59 233.56 C 22.77 239.23 23.82 245.57 27.54 250.49 C 32.66 256.01 37.04 262.27 43.07 266.88 C 50.96 273.33 60.63 276.90 69.76 281.17 C 75.00 283.85 80.56 285.83 86.13 287.75 C 84.33 278.90 81.29 270.12 81.70 260.99 C 81.78 256.35 81.19 251.57 82.95 247.15 C 84.58 238.37 92.23 232.52 99.72 228.65 C 104.01 225.94 109.21 226.84 114.00 226.69 C 120.09 226.40 125.98 228.17 131.98 228.86 C 139.55 229.80 147.06 231.21 154.63 232.21 C 161.75 233.24 168.38 236.14 174.95 238.91 C 181.95 241.37 186.80 247.59 190.09 253.97 C 193.15 259.64 193.42 266.20 194.76 272.38 C 195.97 277.96 195.84 284.07 199.01 289.03 C 201.60 292.06 204.41 294.95 207.52 297.44 C 211.37 299.40 215.84 298.64 220.00 298.72 C 225.95 298.46 231.92 299.57 237.84 298.62 C 250.21 296.53 262.53 294.00 274.56 290.39 C 277.78 289.07 280.60 286.94 283.88 285.74 C 293.98 281.75 301.82 273.91 309.00 266.04 C 314.64 258.69 318.58 250.09 321.06 241.19 C 322.17 237.81 320.76 233.69 323.53 230.96 C 322.06 218.27 320.10 205.47 315.37 193.50 C 313.04 188.01 311.66 182.17 309.21 176.73 C 304.61 166.09 299.48 155.70 294.83 145.08 C 291.45 138.10 287.64 131.33 284.76 124.11 C 281.28 115.76 276.13 108.31 271.02 100.90 C 268.33 97.84 266.11 94.45 263.94 91.03 C 257.86 83.63 253.72 74.81 247.31 67.67 C 243.32 62.06 239.83 56.00 234.63 51.37 C 230.57 47.80 227.47 42.85 222.23 40.86 C 214.26 37.54 205.97 34.78 197.37 33.71 C 187.80 31.01 177.79 32.77 168.01 32.24 C 159.81 31.35 152.18 34.89 144.72 37.73 Z" />
<path fill="#000000" opacity="1.00" d=" M 218.90 76.60 C 221.38 78.77 222.76 81.80 224.53 84.51 C 230.09 93.27 234.60 102.63 239.14 111.94 C 246.24 128.96 252.92 146.27 256.79 164.35 C 260.19 177.03 262.84 189.94 264.09 203.02 C 264.36 211.11 266.55 219.28 264.52 227.31 C 264.28 229.07 263.37 230.63 261.87 231.62 C 261.41 225.01 262.31 218.34 261.11 211.79 C 260.39 203.13 259.83 194.42 257.93 185.91 C 256.98 177.85 253.91 170.26 252.53 162.28 C 248.85 145.60 242.41 129.69 235.92 113.93 C 233.99 109.02 230.81 104.69 229.32 99.59 C 227.01 91.42 221.73 84.55 218.90 76.60 Z" />
<path fill="#000000" opacity="1.00" d=" M 44.52 99.38 C 47.69 97.99 51.48 98.81 54.88 98.85 C 58.35 99.53 58.98 103.80 57.99 106.69 C 54.77 111.08 49.12 112.65 43.98 113.28 C 41.91 113.24 39.16 113.92 37.92 111.76 C 36.73 106.66 40.71 102.18 44.52 99.38 M 41.81 109.88 C 46.11 108.74 51.34 108.07 53.97 104.03 C 53.68 102.23 51.70 102.03 50.23 102.26 C 46.54 103.51 42.95 105.94 41.81 109.88 Z" />
<path fill="#000000" opacity="1.00" d=" M 112.90 118.56 C 117.07 120.81 120.20 124.88 122.13 129.11 C 121.91 137.07 123.32 144.90 123.43 152.85 C 124.01 156.38 124.47 159.93 124.22 163.52 C 122.77 163.45 121.84 162.76 121.45 161.46 C 118.09 151.11 118.92 140.14 118.58 129.45 C 115.58 126.78 110.16 123.15 112.90 118.56 Z" />
<path fill="#000000" opacity="1.00" d=" M 166.89 121.56 C 170.36 123.15 172.50 126.37 174.73 129.31 C 177.03 132.02 176.11 135.77 176.25 139.02 C 175.98 143.39 177.28 147.65 177.26 152.01 C 177.20 156.89 178.73 161.65 178.21 166.55 C 173.85 165.45 174.28 159.65 173.60 156.08 C 172.12 148.26 173.10 140.31 172.58 132.45 C 169.58 129.77 164.17 126.15 166.89 121.56 Z" />
<path fill="#000000" opacity="1.00" d=" M 82.89 164.82 C 84.92 163.57 87.34 163.74 89.62 163.77 C 88.71 164.90 87.61 165.88 86.21 166.37 C 80.09 168.91 74.20 171.96 68.65 175.57 C 68.93 174.03 68.38 171.93 70.20 171.19 C 74.18 168.61 78.74 167.10 82.89 164.82 Z" />
<path fill="#000000" opacity="1.00" d=" M 94.88 171.81 C 97.83 170.08 101.12 169.09 104.50 168.63 C 102.81 171.34 99.58 172.29 97.16 174.17 C 94.56 176.13 91.67 177.66 88.49 178.43 C 89.06 175.10 92.21 173.33 94.88 171.81 Z" />
<path fill="#000000" opacity="1.00" d=" M 192.10 181.05 C 194.75 179.27 197.51 177.66 200.48 176.46 C 200.38 179.87 196.97 181.10 194.56 182.65 C 191.35 184.48 188.48 187.31 184.57 187.40 C 186.13 184.33 189.38 182.88 192.10 181.05 Z" />
<path fill="#000000" opacity="1.00" d=" M 141.53 181.52 C 145.08 181.39 145.63 184.70 145.33 187.47 C 142.01 187.64 142.07 183.83 141.53 181.52 Z" />
<path fill="#000000" opacity="1.00" d=" M 202.49 190.46 C 204.22 185.65 210.18 184.36 214.44 182.53 C 214.63 184.56 212.98 185.73 211.40 186.53 C 208.55 188.09 205.79 190.02 202.49 190.46 Z" />
</g>
</svg>
