<?xml version="1.0" encoding="UTF-8" ?>
<!DOCTYPE svg PUBLIC "-//W3C//DTD SVG 1.1//EN" "http://www.w3.org/Graphics/SVG/1.1/DTD/svg11.dtd">
<svg width="311pt" height="276pt" viewBox="0 0 311 276" version="1.1" xmlns="http://www.w3.org/2000/svg">
<g id="#000000ff">
<path fill="#000000" opacity="1.00" d=" M 139.31 1.12 C 141.10 0.37 143.08 0.46 144.98 0.42 C 155.33 0.53 165.69 0.48 176.04 0.44 C 179.83 0.43 183.27 2.23 186.95 2.88 C 197.09 5.30 208.56 6.92 215.92 15.09 C 221.41 20.32 226.29 26.16 230.84 32.22 C 234.00 37.63 238.90 41.75 241.67 47.40 C 244.65 50.85 246.17 55.33 249.51 58.48 C 252.30 61.47 253.69 65.47 256.69 68.31 C 260.46 73.28 263.90 78.50 267.37 83.69 C 270.98 88.95 272.02 95.41 275.15 100.92 C 283.31 116.49 290.39 132.57 297.39 148.67 C 302.50 161.99 307.56 175.47 309.56 189.68 C 311.94 197.89 309.66 206.28 308.62 214.49 C 306.38 223.55 302.57 232.40 296.82 239.80 C 293.06 243.42 290.53 248.23 286.11 251.16 C 280.24 255.27 274.25 259.27 268.71 263.81 C 250.15 269.05 231.24 273.61 212.02 275.56 C 206.05 275.32 200.02 275.99 194.08 275.19 C 189.16 273.87 184.04 274.28 179.00 274.27 C 164.33 274.28 149.66 274.25 135.00 274.28 C 126.60 274.69 118.35 272.80 110.00 272.22 C 93.63 270.20 77.41 266.76 61.81 261.33 C 56.78 259.92 51.68 258.57 47.11 255.96 C 43.67 253.95 39.54 253.20 36.50 250.53 C 32.85 246.97 27.81 245.41 24.00 242.05 C 18.74 238.64 15.46 233.22 11.20 228.78 C 8.55 225.33 4.98 222.25 4.06 217.81 C 3.42 214.36 1.96 211.16 0.86 207.85 C -0.74 195.36 1.27 182.58 5.66 170.81 C 8.43 163.42 10.92 155.39 17.01 149.99 C 20.58 145.49 23.83 140.73 26.76 135.78 C 30.01 132.44 31.18 127.77 34.27 124.32 C 37.13 121.01 38.49 116.71 41.53 113.54 C 44.60 110.15 46.40 105.86 49.28 102.32 C 51.53 99.71 52.32 96.20 54.64 93.65 C 57.04 91.15 57.98 87.74 59.85 84.89 C 63.85 78.72 66.87 72.00 70.66 65.71 C 77.41 53.77 83.32 41.35 90.83 29.85 C 92.10 28.00 94.50 27.54 96.11 26.08 C 99.12 23.42 101.55 20.13 104.88 17.84 C 108.86 15.07 113.03 12.57 117.24 10.16 C 124.34 6.57 132.04 4.34 139.31 1.12 M 128.81 9.72 C 134.20 9.93 139.61 9.47 145.00 9.82 C 155.08 11.05 165.28 13.49 173.95 19.00 C 176.29 20.57 179.17 22.26 179.41 25.41 C 174.10 23.40 169.53 19.77 164.07 18.10 C 155.61 15.56 146.95 12.90 138.00 13.24 C 130.79 13.45 123.16 12.39 116.39 15.50 C 112.23 17.79 108.20 20.44 104.88 23.87 C 101.76 27.13 97.74 29.34 94.62 32.59 C 90.70 37.79 87.00 43.20 84.17 49.09 C 80.86 56.19 76.28 62.61 72.64 69.55 C 63.67 87.58 53.03 104.80 40.97 120.89 C 38.12 125.97 34.73 130.70 31.64 135.62 C 26.02 142.79 22.21 151.26 16.01 157.99 C 13.29 161.63 12.10 166.10 10.32 170.22 C 5.67 180.74 3.62 192.42 4.34 203.90 C 4.97 208.38 7.23 212.41 8.42 216.74 C 9.65 221.25 13.35 224.34 16.25 227.78 C 19.42 231.86 23.02 235.65 27.08 238.88 C 34.77 245.17 44.16 248.74 53.09 252.84 C 58.54 255.64 64.30 257.78 70.11 259.72 C 68.63 253.14 66.98 246.58 65.90 239.92 C 65.50 235.62 65.80 231.29 65.69 226.98 C 65.36 222.62 67.27 218.58 68.35 214.45 C 72.36 207.09 79.66 202.12 87.30 199.13 C 92.46 198.28 97.78 198.77 103.00 198.81 C 113.37 200.55 123.80 201.87 134.18 203.59 C 144.38 204.45 153.94 208.52 163.09 212.86 C 171.17 218.53 176.41 227.93 177.53 237.70 C 178.83 243.85 179.54 250.12 180.89 256.25 C 182.05 261.37 186.38 264.59 189.88 268.12 C 191.93 270.31 195.11 270.77 197.98 270.77 C 203.24 270.79 208.52 270.53 213.77 270.96 C 220.52 271.47 227.10 269.50 233.71 268.48 C 242.54 266.59 251.44 264.77 259.97 261.81 C 265.35 258.33 271.72 256.70 276.89 252.85 C 282.65 249.09 287.31 243.97 292.09 239.09 C 298.01 232.04 301.86 223.48 304.65 214.77 C 306.14 210.88 304.87 206.37 307.34 202.85 C 306.23 188.59 303.24 174.42 297.71 161.20 C 293.16 146.32 285.51 132.69 279.46 118.42 C 275.82 110.74 271.60 103.34 268.45 95.43 C 265.03 87.32 259.94 80.13 255.03 72.88 C 252.49 70.01 250.29 66.88 248.34 63.58 C 243.24 57.23 239.20 50.12 234.52 43.47 C 230.84 39.67 228.28 35.03 225.18 30.80 C 221.64 25.75 216.82 21.84 212.64 17.36 C 208.99 13.10 203.32 11.80 198.32 9.82 C 190.46 6.92 182.15 5.83 173.98 4.29 C 164.07 4.34 154.14 4.04 144.24 4.44 C 139.02 5.92 133.80 7.55 128.81 9.72 Z" />
<path fill="#000000" opacity="1.00" d=" M 202.91 48.64 C 204.74 50.07 205.83 52.14 207.02 54.08 C 221.13 76.18 230.85 100.76 238.30 125.81 C 242.12 141.77 246.51 157.68 248.03 174.09 C 248.26 182.75 250.74 191.54 248.32 200.12 C 248.22 201.67 247.00 202.62 245.92 203.55 C 245.56 199.03 245.80 194.49 245.76 189.96 C 244.44 175.62 243.38 161.16 239.70 147.17 C 237.19 139.30 236.23 131.04 233.68 123.19 C 230.03 111.01 225.43 99.13 220.50 87.42 C 218.61 81.91 214.98 77.19 213.30 71.60 C 211.04 63.43 205.72 56.59 202.91 48.64 Z" />
<path fill="#000000" opacity="1.00" d=" M 96.92 90.61 C 101.00 92.56 103.59 96.57 105.90 100.29 C 106.85 104.62 105.74 109.16 106.65 113.53 C 107.70 118.08 106.83 122.80 107.80 127.35 C 108.37 130.01 108.31 132.74 108.20 135.44 C 106.72 135.46 105.80 134.80 105.45 133.45 C 102.18 123.06 102.69 112.06 102.74 101.31 C 99.40 99.07 94.23 94.99 96.92 90.61 Z" />
<path fill="#000000" opacity="1.00" d=" M 150.92 93.62 C 155.00 95.56 157.59 99.57 159.90 103.29 C 160.77 109.13 159.75 115.17 161.14 121.01 C 160.89 126.88 162.68 132.60 162.19 138.46 C 159.77 138.52 159.20 136.07 158.60 134.22 C 156.37 124.41 156.66 114.31 156.74 104.31 C 153.40 102.07 148.23 97.99 150.92 93.62 Z" />
<path fill="#000000" opacity="1.00" d=" M 66.20 137.14 C 68.40 135.74 70.99 135.56 73.52 135.82 C 72.75 137.06 71.58 137.89 70.21 138.36 C 64.12 140.89 58.29 143.96 52.73 147.48 C 52.78 146.65 52.90 145.01 52.96 144.19 C 56.81 140.91 61.87 139.65 66.20 137.14 Z" />
<path fill="#000000" opacity="1.00" d=" M 74.70 146.64 C 78.60 143.44 83.39 141.16 88.45 140.69 C 87.69 141.89 86.70 142.90 85.40 143.52 C 81.12 145.80 77.52 149.50 72.57 150.36 C 72.94 148.95 73.39 147.46 74.70 146.64 Z" />
<path fill="#000000" opacity="1.00" d=" M 172.47 155.38 C 176.36 152.98 180.04 150.10 184.40 148.57 C 184.41 151.96 180.90 153.09 178.55 154.65 C 175.35 156.42 172.54 159.41 168.62 159.33 C 169.52 157.68 170.84 156.32 172.47 155.38 Z" />
<path fill="#000000" opacity="1.00" d=" M 190.93 157.82 C 193.27 156.44 195.75 155.33 198.37 154.61 C 198.27 155.16 198.08 156.24 197.99 156.79 C 194.45 159.06 190.82 161.78 186.57 162.37 C 186.76 159.92 189.13 158.98 190.93 157.82 Z" />
<path fill="#000000" opacity="1.00" d=" M 106.58 159.62 C 110.98 159.23 112.66 164.14 116.40 165.50 C 118.53 166.93 122.29 167.14 122.42 170.31 C 118.50 170.34 114.54 169.08 111.58 166.44 C 109.35 164.64 106.88 162.70 106.58 159.62 Z" />
<path fill="#000000" opacity="1.00" d=" M 137.44 166.29 C 139.65 164.81 141.43 162.29 144.43 162.64 C 143.48 167.46 138.04 169.96 133.56 170.34 C 133.75 168.12 135.89 167.41 137.44 166.29 Z" />
</g>
</svg>
