<svg xmlns="http://www.w3.org/2000/svg" width="50" height="50" viewBox="0 0 50 50">
  <path id="Path_152" data-name="Path 152" d="M25-41.821a8.283,8.283,0,0,1-.61,3.125,7.99,7.99,0,0,1-1.782,2.686L-9.546-3.857-25,0l3.857-15.454L11.011-47.607A7.99,7.99,0,0,1,13.7-49.39,8.283,8.283,0,0,1,16.821-50,7.879,7.879,0,0,1,20-49.353,8.335,8.335,0,0,1,22.6-47.6,8.335,8.335,0,0,1,24.353-45,7.879,7.879,0,0,1,25-41.821ZM-17.041-15.137a11.146,11.146,0,0,1,4.456,2.722A11.146,11.146,0,0,1-9.863-7.959L16.528-34.375,9.375-41.528ZM-20.7-4.3l8.032-2a7.864,7.864,0,0,0-.793-2.124,7.834,7.834,0,0,0-1.331-1.782,7.834,7.834,0,0,0-1.782-1.331,7.864,7.864,0,0,0-2.124-.793ZM18.75-36.6q.61-.61,1.172-1.147a8.7,8.7,0,0,0,1-1.135,5.227,5.227,0,0,0,.7-1.294,4.689,4.689,0,0,0,.256-1.624,4.826,4.826,0,0,0-.4-1.965,5.244,5.244,0,0,0-1.1-1.611,5.244,5.244,0,0,0-1.611-1.1,4.825,4.825,0,0,0-1.965-.4,4.689,4.689,0,0,0-1.624.256,5.227,5.227,0,0,0-1.294.7,8.7,8.7,0,0,0-1.135,1q-.537.562-1.147,1.172Z" transform="translate(25 50)" fill="#fff"/>
</svg>
