<svg xmlns="http://www.w3.org/2000/svg" width="53.333" height="50" viewBox="0 0 53.333 50">
  <path id="Path_146" data-name="Path 146" d="M-25-13.333v-10h10v10ZM-21.667-20v3.333h3.333V-20ZM-25-26.667v-10h10v10Zm3.333-6.667V-30h3.333v-3.333ZM-25-40V-50h10v10Zm3.333-6.667v3.333h3.333v-3.333ZM-8.333-30v-3.333h30V-30ZM15-20v3.333H-8.333V-20ZM-8.333-46.667H28.333v3.333H-8.333ZM-25,0V-10h10V0Zm3.333-6.667v3.333h3.333V-6.667ZM-8.333-3.333V-6.667h30v3.333Z" transform="translate(25 50)" fill="#fff"/>
</svg>
