<?xml version="1.0" encoding="UTF-8" ?>
<!DOCTYPE svg PUBLIC "-//W3C//DTD SVG 1.1//EN" "http://www.w3.org/Graphics/SVG/1.1/DTD/svg11.dtd">
<svg width="316pt" height="282pt" viewBox="0 0 316 282" version="1.1" xmlns="http://www.w3.org/2000/svg">
<g id="#000000ff">
<path fill="#000000" opacity="1.00" d=" M 141.32 4.17 C 142.81 3.65 144.41 3.74 145.97 3.69 C 156.65 3.75 167.34 3.75 178.03 3.69 C 181.80 3.59 185.31 5.12 188.94 5.87 C 197.85 7.98 207.35 9.47 214.83 15.14 C 223.05 22.68 230.35 31.22 236.51 40.52 C 241.95 46.31 245.43 53.56 250.08 59.92 C 252.57 62.25 254.25 65.20 256.02 68.07 C 261.00 73.88 265.09 80.36 269.36 86.70 C 272.74 91.52 273.78 97.44 276.48 102.60 C 282.25 113.99 288.08 125.38 292.92 137.20 C 299.05 150.02 304.14 163.33 308.21 176.94 C 310.69 187.27 313.55 197.95 311.81 208.64 C 310.76 223.03 304.70 237.18 294.61 247.55 C 290.67 253.41 284.22 256.64 278.68 260.72 C 274.79 262.80 272.26 267.11 267.66 267.82 C 246.77 272.87 225.72 279.20 204.00 278.29 C 197.95 278.83 192.05 276.93 186.00 277.23 C 167.66 277.32 149.30 277.24 130.96 277.28 C 116.27 275.77 101.57 274.18 87.13 271.04 C 80.64 269.08 73.92 267.93 67.56 265.57 C 61.65 263.41 55.30 262.44 49.77 259.29 C 45.94 257.01 41.24 256.22 37.97 253.04 C 35.34 250.49 31.83 249.25 28.88 247.16 C 25.01 244.42 21.12 241.54 18.28 237.68 C 14.53 232.77 9.71 228.62 6.78 223.13 C 5.70 218.67 3.98 214.39 2.82 209.97 C 2.71 202.64 2.21 195.19 3.71 187.95 C 4.74 181.80 6.90 175.92 8.99 170.07 C 11.42 164.19 13.60 157.84 18.52 153.51 C 22.38 148.95 25.67 143.90 28.76 138.79 C 31.87 135.64 33.00 131.21 35.85 127.88 C 39.23 123.81 41.10 118.71 44.86 114.91 C 48.32 109.36 52.46 104.25 55.34 98.36 C 59.13 94.20 60.91 88.78 64.12 84.21 C 68.37 76.17 73.03 68.35 77.21 60.26 C 82.72 50.78 87.20 40.58 93.80 31.81 C 99.59 29.17 102.74 23.28 108.06 20.01 C 113.65 16.43 119.22 12.67 125.48 10.35 C 130.76 8.29 136.07 6.30 141.32 4.17 M 130.84 12.77 C 136.53 12.97 142.24 12.35 147.92 12.92 C 158.60 14.34 169.50 17.12 178.29 23.63 C 179.64 24.84 181.61 26.04 181.20 28.15 C 176.37 26.82 172.37 23.16 167.52 21.62 C 158.63 18.75 149.46 15.95 140.01 16.23 C 133.02 16.44 125.70 15.46 119.06 18.19 C 114.38 20.54 110.03 23.61 106.36 27.36 C 103.53 30.24 99.97 32.27 97.09 35.09 C 91.48 41.82 87.30 49.56 83.46 57.40 C 77.90 66.37 72.92 75.67 68.16 85.08 C 62.79 94.27 57.44 103.50 51.27 112.18 C 48.30 117.72 43.52 122.01 40.74 127.67 C 34.15 137.76 27.44 147.73 20.80 157.77 C 15.06 163.22 13.45 171.24 10.33 178.21 C 7.04 187.89 5.37 198.36 6.59 208.56 C 8.68 214.03 9.78 220.05 13.11 224.93 C 18.63 231.04 23.48 237.88 30.22 242.76 C 35.19 246.76 41.06 249.35 46.75 252.14 C 55.18 255.69 63.24 260.13 72.06 262.67 C 70.39 253.83 67.24 245.11 67.70 236.00 C 67.81 231.36 67.15 226.56 68.96 222.15 C 70.62 213.10 78.66 207.22 86.38 203.30 C 90.54 200.94 95.45 201.89 100.00 201.68 C 106.39 201.39 112.57 203.32 118.88 203.98 C 125.87 204.82 132.79 206.19 139.78 207.06 C 148.46 208.28 156.52 211.95 164.44 215.50 C 169.82 218.77 173.69 224.06 176.43 229.64 C 179.33 235.43 179.50 242.02 180.93 248.22 C 182.17 254.34 181.96 261.54 186.86 266.14 C 190.14 269.22 193.07 273.71 198.09 273.68 C 206.68 273.75 215.28 273.85 223.87 273.62 C 233.82 271.88 243.77 270.00 253.52 267.35 C 256.98 266.25 260.73 265.82 263.83 263.79 C 268.02 261.07 272.98 259.88 277.10 257.03 C 283.80 252.95 289.20 247.20 294.55 241.57 C 304.02 229.58 309.16 214.31 308.71 199.04 C 307.22 186.83 304.15 174.82 299.45 163.45 C 296.45 153.12 291.37 143.60 287.14 133.76 C 283.39 126.41 280.47 118.67 276.48 111.43 C 271.91 102.90 269.00 93.50 263.47 85.49 C 260.64 81.63 258.48 77.31 255.27 73.75 C 252.55 70.68 250.91 66.85 248.19 63.79 C 243.00 56.91 239.10 49.10 233.31 42.67 C 229.92 38.07 227.14 32.99 223.12 28.88 C 220.14 25.86 217.09 22.91 214.15 19.85 C 210.72 16.10 205.59 14.91 201.05 13.08 C 192.98 10.02 184.41 8.86 175.98 7.29 C 166.07 7.35 156.14 7.02 146.25 7.45 C 141.05 8.99 135.73 10.43 130.84 12.77 Z" />
<path fill="#000000" opacity="1.00" d=" M 204.89 51.71 C 207.23 53.28 208.23 56.04 209.77 58.30 C 215.66 67.41 220.40 77.19 225.14 86.94 C 232.24 103.96 238.92 121.27 242.79 139.35 C 246.66 153.91 249.70 168.78 250.47 183.85 C 251.42 190.21 251.96 196.82 250.33 203.12 C 249.99 204.39 249.47 206.17 247.88 206.28 C 247.35 199.49 248.36 192.63 246.99 185.91 C 246.18 171.42 243.85 157.01 239.78 143.07 C 236.08 123.57 228.66 105.06 221.02 86.84 C 219.10 82.76 216.58 78.96 215.31 74.60 C 213.02 66.46 207.78 59.60 204.89 51.71 Z" />
<path fill="#000000" opacity="1.00" d=" M 99.01 93.88 C 103.23 95.38 105.53 99.77 107.90 103.28 C 108.83 107.62 107.74 112.16 108.66 116.53 C 109.67 121.08 108.86 125.79 109.80 130.35 C 110.28 132.93 110.51 135.57 110.12 138.18 C 109.62 138.15 108.63 138.11 108.14 138.08 C 106.14 133.89 105.88 129.16 105.17 124.64 C 104.10 117.94 105.21 111.15 104.58 104.43 C 101.76 102.06 98.68 99.74 97.78 95.93 C 98.09 95.41 98.70 94.39 99.01 93.88 Z" />
<path fill="#000000" opacity="1.00" d=" M 153.01 96.88 C 157.24 98.37 159.53 102.78 161.91 106.29 C 162.88 110.96 161.68 115.83 162.66 120.54 C 163.55 124.76 162.97 129.12 163.80 133.36 C 164.30 135.94 164.49 138.60 164.13 141.22 C 163.64 141.18 162.67 141.10 162.18 141.06 C 159.66 136.72 159.81 131.60 159.08 126.79 C 158.14 120.37 159.21 113.87 158.58 107.43 C 155.77 105.05 152.67 102.74 151.78 98.93 C 152.09 98.42 152.70 97.40 153.01 96.88 Z" />
<path fill="#000000" opacity="1.00" d=" M 67.54 140.47 C 69.85 139.11 72.47 138.31 75.17 138.80 L 75.11 139.81 C 69.65 142.88 63.53 144.78 58.34 148.36 C 57.20 149.04 56.20 150.16 54.78 150.19 C 54.81 149.44 54.86 147.96 54.88 147.21 C 58.58 144.09 63.38 142.83 67.54 140.47 Z" />
<path fill="#000000" opacity="1.00" d=" M 78.39 148.32 C 81.96 146.00 85.95 144.00 90.27 143.71 C 89.92 145.48 88.04 146.01 86.74 146.89 C 82.76 149.02 79.43 152.64 74.76 153.23 C 74.49 150.84 76.79 149.59 78.39 148.32 Z" />
<path fill="#000000" opacity="1.00" d=" M 178.10 156.05 C 180.75 154.62 183.13 152.24 186.19 151.84 C 186.67 154.85 183.13 155.87 181.18 157.27 C 177.74 158.96 174.89 162.46 170.79 162.28 C 172.01 159.10 175.56 157.94 178.10 156.05 Z" />
<path fill="#000000" opacity="1.00" d=" M 189.09 163.36 C 192.49 161.00 196.09 158.60 200.20 157.76 C 200.19 158.27 200.15 159.28 200.13 159.79 C 196.49 161.75 193.04 164.97 188.81 165.21 C 188.88 164.75 189.02 163.82 189.09 163.36 Z" />
<path fill="#000000" opacity="1.00" d=" M 124.79 165.23 C 124.22 161.94 128.40 161.01 130.81 160.13 C 132.61 161.51 134.29 163.18 135.17 165.31 C 133.26 165.26 131.65 164.20 129.94 163.51 C 128.20 164.03 126.55 164.80 124.79 165.23 Z" />
</g>
</svg>
