<svg xmlns="http://www.w3.org/2000/svg" width="43.996" height="50" viewBox="0 0 43.996 50">
  <path id="Union_5" data-name="Union 5" d="M0,29a22.072,22.072,0,0,1,8.954-17.78,41.711,41.711,0,0,0-7.518-.4,25.189,25.189,0,0,1,8.736-4.089,15.371,15.371,0,0,1,2.405-.3L11.043,2.622A5.514,5.514,0,0,1,12.78,1.316a4.113,4.113,0,0,1,1.973-.2l1.775,4.408a15.428,15.428,0,0,1,2.027-1.319,25.155,25.155,0,0,1,9.311-2.5A41.977,41.977,0,0,0,22.3,6.921,22.078,22.078,0,1,1,0,29Z" transform="translate(0 -1.076)" fill="#fff"/>
</svg>
