<?xml version="1.0" encoding="UTF-8" ?>
<!DOCTYPE svg PUBLIC "-//W3C//DTD SVG 1.1//EN" "http://www.w3.org/Graphics/SVG/1.1/DTD/svg11.dtd">
<svg width="444pt" height="279pt" viewBox="0 0 444 279" version="1.1" xmlns="http://www.w3.org/2000/svg">
<g id="#000000ff">
<path fill="#000000" opacity="1.00" d=" M 263.91 4.78 C 266.98 3.87 269.62 1.53 272.98 1.70 C 285.31 1.75 297.65 1.62 309.97 1.76 C 321.12 5.20 333.41 5.90 343.32 12.61 C 349.84 18.51 355.62 25.10 361.05 31.98 C 363.76 35.88 366.16 40.12 369.81 43.24 C 371.25 45.48 371.87 48.25 373.92 50.08 C 376.53 52.36 376.78 56.28 379.55 58.44 C 383.45 61.44 384.20 66.91 388.29 69.74 C 393.53 78.23 400.75 85.87 403.36 95.79 C 406.29 102.65 409.97 109.17 413.21 115.89 C 415.36 119.58 416.39 123.80 418.70 127.41 C 420.62 131.26 421.69 135.48 423.87 139.22 C 425.94 142.47 426.19 146.48 428.51 149.60 C 431.92 159.60 436.19 169.36 438.44 179.73 C 440.45 189.06 442.73 198.79 440.49 208.29 C 440.14 218.95 435.50 228.98 430.01 237.94 C 428.17 241.34 424.74 243.42 422.75 246.71 C 419.98 251.06 415.13 253.16 411.27 256.32 C 407.93 259.03 403.72 260.64 401.10 264.18 C 394.61 267.01 387.43 267.83 380.66 269.85 C 370.61 272.05 360.60 274.83 350.29 275.49 C 345.08 277.12 339.60 275.75 334.29 276.48 C 330.70 277.44 326.91 277.71 323.26 277.00 C 323.07 276.57 322.70 275.73 322.51 275.31 C 301.33 275.30 280.14 275.26 258.96 275.33 C 247.78 273.75 236.51 273.12 225.38 270.82 C 217.31 269.93 209.69 267.00 201.77 265.37 C 193.55 262.04 184.46 260.97 176.82 256.26 C 173.35 254.41 168.96 253.85 166.44 250.56 C 164.88 248.64 162.29 248.12 160.28 246.81 C 154.39 242.90 148.46 238.59 144.90 232.31 C 137.77 235.31 129.92 235.93 122.84 239.02 C 113.62 240.75 104.52 243.00 95.28 244.50 C 84.33 247.60 73.19 250.08 62.02 252.24 C 60.34 251.72 59.35 250.11 58.15 248.94 C 59.43 245.25 55.67 242.39 54.92 238.95 C 46.51 221.72 43.17 202.64 35.93 184.95 C 32.52 174.56 28.19 164.48 23.12 154.79 C 15.91 143.19 9.81 130.91 2.11 119.61 C 1.34 118.45 1.50 116.66 2.50 115.68 C 5.75 111.70 10.68 109.78 14.56 106.53 C 16.25 105.10 18.20 103.99 20.28 103.22 C 20.87 98.85 23.21 94.48 22.13 90.05 C 27.73 84.70 34.83 79.69 42.89 79.67 C 41.05 73.96 41.75 67.92 41.76 62.03 C 42.59 58.38 43.65 54.12 47.00 51.95 C 49.69 49.68 53.84 50.49 56.41 52.56 C 58.61 54.91 60.28 57.76 61.38 60.78 C 62.56 64.18 64.82 67.16 65.41 70.77 C 69.95 69.16 74.61 68.00 79.35 67.15 C 83.69 65.82 88.29 65.09 92.80 65.97 C 95.33 68.59 95.70 72.64 97.42 75.81 C 104.50 75.06 111.13 72.15 118.08 70.73 C 120.09 70.31 121.82 71.67 123.53 72.50 C 125.22 77.38 128.46 81.72 129.28 86.88 C 132.68 81.52 135.76 75.91 139.47 70.74 C 138.73 68.82 138.32 66.62 139.76 64.88 C 142.07 62.08 144.03 59.03 146.06 56.03 C 150.02 52.96 155.35 53.72 160.03 53.69 C 163.34 53.51 166.11 55.78 168.00 58.27 C 168.51 61.50 168.86 65.16 167.26 68.15 C 165.52 70.76 163.12 72.91 160.47 74.56 C 160.92 80.02 155.88 83.14 153.36 87.29 C 151.49 90.39 149.18 93.20 147.53 96.43 C 145.07 101.77 141.47 106.52 139.30 112.00 C 141.87 117.52 144.50 123.05 146.21 128.91 C 148.70 133.74 150.77 138.85 154.08 143.22 C 155.79 139.69 157.53 136.17 160.50 133.51 C 161.99 127.94 166.93 124.43 169.13 119.24 C 170.72 115.45 174.74 113.24 175.97 109.23 C 173.55 109.28 171.14 109.29 168.73 109.20 C 169.50 105.36 174.30 106.64 176.91 107.60 C 179.80 104.13 182.70 100.59 184.13 96.24 C 186.42 94.00 188.39 91.53 189.27 88.38 C 194.56 80.45 198.43 71.66 203.48 63.57 C 205.80 58.10 209.44 53.34 211.78 47.88 C 214.74 41.98 218.47 36.51 221.75 30.79 C 222.68 28.86 225.15 28.92 226.60 27.58 C 229.23 25.21 231.48 22.45 234.14 20.11 C 243.11 13.34 253.19 8.15 263.91 4.78 M 265.44 8.60 C 263.61 9.32 261.40 9.40 259.96 10.86 C 264.98 10.69 270.01 10.66 275.04 10.67 C 286.80 12.06 299.03 14.91 308.43 22.53 C 309.49 23.23 311.48 25.93 309.16 26.25 C 298.41 19.16 285.71 15.61 273.02 14.26 C 265.72 14.65 258.27 13.43 251.10 15.28 C 247.08 15.84 244.04 18.74 240.70 20.76 C 237.57 22.55 235.65 25.74 232.71 27.76 C 230.39 29.41 228.32 31.37 226.01 33.02 C 221.94 38.68 217.80 44.38 214.86 50.76 C 212.41 56.39 208.63 61.30 205.86 66.76 C 201.27 74.32 198.07 82.65 193.04 89.95 C 191.74 92.87 190.05 95.54 188.04 98.01 C 186.44 101.53 184.11 104.60 182.09 107.87 C 184.85 107.54 187.62 107.71 190.28 108.52 C 196.94 108.86 203.92 109.60 209.90 112.76 C 209.84 111.25 209.61 109.72 209.91 108.23 C 210.60 106.57 212.53 106.75 213.99 106.68 C 220.61 106.69 227.23 106.71 233.85 106.74 C 233.78 105.32 233.78 103.89 233.57 102.49 C 232.53 100.48 229.74 100.25 228.78 98.16 C 227.73 96.13 225.83 93.79 227.94 91.77 C 231.63 92.55 232.81 96.39 235.38 98.67 C 237.54 100.81 237.36 104.00 237.27 106.79 C 241.75 106.80 246.55 105.97 250.69 108.18 C 253.28 109.89 255.81 112.33 255.36 115.72 C 258.16 115.73 260.96 115.74 263.76 115.76 C 263.66 113.11 263.73 110.45 263.82 107.80 C 271.68 109.68 279.88 108.28 287.89 108.72 C 287.73 107.01 288.00 104.80 286.08 103.97 C 283.16 102.69 281.83 99.75 280.78 96.94 C 281.07 96.40 281.65 95.31 281.93 94.77 C 285.41 95.44 286.56 98.95 288.90 101.13 C 291.05 103.00 291.36 105.95 291.39 108.61 C 296.34 110.57 301.69 109.15 306.80 109.94 C 308.30 111.64 309.19 113.77 310.57 115.56 C 312.09 116.19 313.67 115.17 315.20 115.00 C 324.18 113.87 333.16 112.54 342.04 110.77 C 343.58 110.29 344.88 111.55 345.18 112.98 C 333.63 115.18 322.00 116.81 310.37 118.42 C 309.72 120.76 309.52 123.26 308.52 125.49 C 303.47 128.30 297.57 127.05 292.08 127.26 C 292.75 131.25 293.90 135.19 293.13 139.27 C 292.63 139.21 291.64 139.08 291.14 139.02 C 289.31 135.40 288.07 131.34 288.99 127.28 C 286.09 128.86 282.70 127.87 279.64 128.84 C 276.37 129.80 272.89 128.78 269.64 129.85 C 268.24 130.61 267.20 129.37 266.73 128.16 C 265.44 125.02 264.74 121.64 264.67 118.25 C 261.54 118.34 258.40 118.32 255.29 118.02 C 256.41 120.73 257.47 125.02 254.80 127.05 C 249.73 127.77 244.58 126.86 239.51 127.51 C 239.30 130.42 239.20 133.34 239.16 136.26 C 238.65 136.21 237.62 136.11 237.11 136.06 C 235.90 133.60 235.53 130.84 234.72 128.24 C 227.81 128.31 220.90 128.30 213.99 128.32 C 212.55 128.23 210.62 128.45 209.94 126.81 C 209.27 122.79 210.15 118.68 209.42 114.67 C 203.07 113.03 196.69 111.07 190.07 111.18 C 186.92 110.43 183.68 109.86 180.44 110.39 C 178.46 112.49 177.51 115.36 175.40 117.37 C 171.32 121.54 169.55 127.33 165.70 131.68 C 163.97 133.72 163.50 136.60 161.41 138.38 C 159.08 140.57 157.86 143.60 156.53 146.45 C 155.70 147.88 156.99 149.29 157.49 150.58 C 164.56 163.39 168.73 177.50 174.07 191.05 C 176.74 199.41 180.56 207.41 182.27 216.06 C 182.61 218.21 181.52 220.76 179.32 221.43 C 174.92 224.10 169.75 224.57 164.94 226.11 C 159.81 228.26 154.36 229.49 149.10 231.26 C 152.53 234.70 155.75 238.42 159.83 241.12 C 164.54 245.10 170.38 247.27 175.76 250.15 C 184.21 253.65 192.29 258.05 201.09 260.71 C 199.92 255.52 198.58 250.38 197.66 245.14 C 195.95 239.22 196.99 233.02 196.66 226.96 C 196.03 222.80 199.18 219.44 199.00 215.31 C 202.05 211.91 204.36 207.73 208.44 205.38 C 212.69 203.00 216.77 199.37 221.96 199.67 C 225.98 199.74 230.00 199.62 234.02 199.72 C 246.42 201.86 258.91 203.48 271.33 205.45 C 279.33 207.01 286.74 210.51 294.13 213.77 C 302.35 219.76 307.80 229.40 308.65 239.55 C 309.94 245.15 310.68 250.85 311.67 256.50 C 312.59 259.25 313.53 262.22 315.88 264.13 C 318.95 266.68 321.14 270.76 325.40 271.45 C 332.29 272.32 339.32 270.99 346.19 272.17 C 361.66 270.80 376.85 267.03 391.74 262.69 C 393.38 261.13 395.30 259.96 397.50 259.34 C 408.17 255.36 416.47 247.27 424.01 239.04 C 426.97 234.89 429.78 230.60 431.76 225.88 C 434.15 220.18 436.83 214.32 436.76 208.01 C 437.34 204.38 438.14 200.75 437.72 197.04 C 436.07 185.14 433.39 173.30 428.66 162.21 C 426.87 156.25 424.58 150.49 422.06 144.80 C 416.01 132.16 410.62 119.22 404.13 106.78 C 401.44 101.93 399.85 96.59 397.14 91.76 C 394.43 85.49 389.85 80.33 386.51 74.41 C 385.75 72.92 384.37 71.93 383.26 70.73 C 381.15 68.38 380.32 65.17 378.09 62.91 C 376.42 61.16 374.97 59.21 373.87 57.05 C 372.16 53.57 369.15 50.94 367.52 47.41 C 365.88 43.89 362.35 41.80 360.59 38.34 C 355.45 29.48 347.89 22.47 340.50 15.52 C 331.65 11.27 322.13 7.87 312.33 6.87 C 309.58 6.23 306.89 5.11 304.03 5.26 C 294.72 5.37 285.41 5.22 276.10 5.32 C 272.40 5.84 269.03 7.63 265.44 8.60 M 51.30 55.16 C 49.44 57.63 46.22 59.64 46.31 63.08 C 46.36 67.45 45.78 71.94 47.03 76.19 C 47.59 78.08 47.24 80.05 47.18 81.98 C 41.74 83.66 35.98 84.88 31.32 88.36 C 30.20 89.02 29.96 90.43 30.58 91.53 C 31.77 94.10 32.65 96.78 33.58 99.45 C 35.73 102.09 38.12 104.59 39.52 107.75 C 42.73 107.98 45.41 105.81 48.51 105.32 C 59.76 101.86 71.01 96.94 83.03 97.74 C 89.18 98.24 94.81 95.11 100.85 94.59 C 99.25 85.62 92.66 78.71 89.56 70.30 C 80.13 69.80 71.35 74.51 62.09 75.23 C 59.90 67.92 56.70 60.64 51.30 55.16 M 153.48 57.34 C 152.03 58.99 150.09 60.04 148.43 61.42 C 146.88 63.32 145.65 65.48 143.80 67.13 C 147.97 69.34 152.76 70.08 156.75 72.70 C 159.26 69.17 163.86 66.96 164.76 62.45 C 163.32 61.15 162.22 59.54 160.87 58.15 C 158.70 56.72 155.92 57.35 153.48 57.34 M 140.61 77.54 C 135.65 84.15 132.31 91.77 127.59 98.52 C 123.93 104.93 121.44 111.99 116.97 117.91 C 114.86 121.92 111.77 125.89 112.17 130.67 C 115.05 131.54 118.08 132.09 120.71 133.63 C 122.69 129.78 124.77 125.93 127.56 122.59 C 131.43 116.96 134.42 110.78 137.74 104.82 C 141.06 99.94 142.39 93.93 146.57 89.59 C 149.14 85.18 152.45 81.28 155.09 76.91 C 151.68 74.87 148.02 73.12 144.15 72.16 C 142.41 73.37 142.01 75.92 140.61 77.54 M 99.93 80.83 C 102.56 85.05 104.96 89.86 104.32 94.99 C 104.52 98.67 99.97 99.02 97.29 99.51 C 87.57 102.11 77.50 102.35 67.61 103.78 C 60.47 105.54 53.67 108.37 46.87 111.11 C 43.70 111.48 40.42 111.56 37.28 111.00 C 34.47 109.03 33.14 105.76 31.12 103.11 C 26.10 104.71 21.52 107.20 17.33 110.39 C 13.43 112.39 10.59 116.13 6.26 117.28 C 8.95 122.32 12.04 127.14 15.17 131.91 C 20.36 142.54 27.73 152.00 32.08 163.06 C 38.72 178.32 43.70 194.24 49.24 209.92 C 50.61 215.23 52.46 220.40 54.77 225.37 C 56.75 233.21 61.38 240.01 63.38 247.85 C 67.21 247.60 70.80 246.11 74.54 245.36 C 78.85 244.26 83.35 243.95 87.55 242.42 C 95.75 239.35 104.56 238.77 113.05 236.86 C 122.69 234.57 132.19 231.71 141.54 228.38 C 152.51 226.73 162.74 222.00 173.51 219.37 C 175.63 218.81 178.70 217.00 177.48 214.41 C 175.63 209.40 173.27 204.60 171.21 199.68 C 167.66 189.46 162.59 179.83 159.37 169.50 C 156.69 164.49 155.62 158.86 153.02 153.83 C 151.08 145.62 145.43 139.11 142.62 131.24 C 140.98 126.38 138.52 121.87 136.64 117.11 C 134.41 118.87 133.57 121.67 132.00 123.94 C 129.83 127.42 126.99 130.55 125.65 134.50 C 124.52 139.17 119.07 140.19 115.62 142.74 C 110.60 144.27 105.09 148.11 99.92 145.00 C 102.63 138.72 104.33 131.99 107.82 126.07 C 101.86 125.66 96.50 128.46 90.93 130.07 C 86.92 130.93 84.62 134.82 80.69 135.89 C 75.15 137.19 69.24 135.37 63.71 136.77 C 61.49 137.04 61.44 140.90 58.93 140.05 C 57.69 136.74 61.43 134.56 64.11 133.83 C 68.98 133.37 73.89 134.01 78.77 133.63 C 81.98 133.00 84.34 130.62 86.89 128.78 C 90.72 127.06 94.85 126.13 98.76 124.62 C 101.86 123.21 105.30 123.93 108.57 123.61 C 110.37 121.97 110.78 119.26 112.20 117.29 C 118.00 109.39 121.01 99.90 126.54 91.83 C 125.41 87.20 123.68 82.72 121.51 78.48 C 120.72 76.83 118.96 75.81 117.13 76.29 C 111.32 77.46 105.42 78.53 99.93 80.83 M 26.22 94.99 C 25.65 96.90 25.24 98.84 24.96 100.82 C 26.26 100.19 27.55 99.55 28.83 98.87 C 28.17 97.44 27.43 96.02 26.22 94.99 M 212.50 109.51 C 212.03 114.92 212.44 120.36 212.22 125.78 C 218.48 125.66 224.75 125.68 231.01 125.75 C 232.37 125.82 233.74 125.61 234.90 124.87 C 232.79 119.92 233.97 114.43 233.78 109.23 C 226.69 109.51 219.57 108.97 212.50 109.51 M 237.16 109.25 C 237.26 114.47 239.02 119.51 238.20 124.78 C 243.43 124.65 248.65 124.71 253.88 124.74 C 253.81 120.91 252.23 117.24 252.68 113.38 C 249.09 108.40 242.52 109.24 237.16 109.25 M 266.11 111.26 C 266.51 116.09 267.67 120.83 268.40 125.63 C 274.52 128.56 281.11 125.01 287.49 125.50 C 288.00 120.75 287.55 115.98 287.79 111.22 C 280.56 111.36 273.34 111.29 266.11 111.26 M 291.24 111.07 C 290.63 115.72 292.50 120.15 292.27 124.77 C 297.07 124.67 301.86 124.70 306.65 124.75 C 306.51 121.00 308.66 117.33 307.43 113.62 C 305.50 111.60 302.48 112.45 300.01 112.30 C 297.00 112.63 294.11 111.79 291.24 111.07 M 109.28 133.36 C 108.13 135.46 107.16 137.65 106.28 139.88 C 110.19 140.91 114.65 139.83 116.90 136.27 C 114.27 135.54 111.67 134.69 109.28 133.36 Z" />
<path fill="#000000" opacity="1.00" d=" M 333.87 49.85 C 335.84 50.31 336.23 52.44 337.20 53.92 C 349.63 72.57 358.27 93.46 365.59 114.57 C 367.01 120.93 369.93 126.86 370.85 133.35 C 374.10 146.26 377.49 159.24 378.65 172.53 C 379.64 175.57 379.15 178.76 379.34 181.89 C 380.81 188.93 381.11 196.65 378.51 203.47 C 378.09 203.68 377.26 204.08 376.84 204.29 C 376.17 197.52 377.66 190.58 375.80 183.94 C 375.45 180.85 376.14 177.67 375.16 174.65 C 374.33 171.70 375.04 168.56 374.22 165.60 C 372.69 159.86 372.50 153.85 370.66 148.18 C 368.05 140.07 367.17 131.52 364.40 123.45 C 360.79 111.54 356.37 99.86 351.41 88.46 C 349.86 83.10 346.17 78.69 344.48 73.37 C 342.41 64.93 336.85 57.94 333.87 49.85 Z" />
<path fill="#000000" opacity="1.00" d=" M 98.93 107.88 C 100.81 106.65 102.24 104.85 103.99 103.44 C 104.57 103.86 105.74 104.69 106.33 105.11 C 104.18 106.73 102.31 108.71 100.13 110.27 C 96.80 111.70 92.90 111.71 89.90 113.95 C 87.71 115.23 85.82 117.68 83.02 117.28 C 79.32 116.92 75.80 118.26 72.14 118.38 C 67.02 118.68 63.03 122.76 57.93 123.18 C 54.35 123.36 50.69 123.88 47.42 125.44 C 45.13 127.16 45.35 130.35 45.02 132.90 C 41.66 134.22 38.07 134.46 34.50 134.36 C 34.18 135.74 32.81 137.04 31.68 135.50 C 29.15 133.45 27.45 130.65 25.64 128.01 C 26.60 126.52 26.96 124.13 29.06 123.88 C 34.06 122.64 39.16 121.96 44.20 120.94 C 45.55 120.30 46.39 121.86 47.28 122.55 C 50.11 121.70 52.96 120.72 55.95 120.69 C 61.77 120.76 66.20 115.80 72.00 115.74 C 75.36 115.63 78.59 114.35 81.98 114.72 C 84.71 115.19 86.55 112.85 88.65 111.58 C 91.65 109.33 95.53 109.17 98.93 107.88 M 28.74 126.66 C 28.03 128.04 29.73 129.29 30.31 130.45 C 30.68 130.40 31.43 130.31 31.80 130.26 C 34.82 132.77 39.30 131.95 42.71 130.71 C 42.40 127.92 42.69 124.97 45.31 123.37 C 39.85 124.70 34.20 125.24 28.74 126.66 Z" />
<path fill="#000000" opacity="1.00" d=" M 197.19 138.11 C 199.29 136.68 201.80 136.48 204.26 136.80 C 204.06 137.22 203.67 138.06 203.47 138.47 C 198.04 140.47 193.00 143.31 187.81 145.83 C 186.43 146.45 185.72 148.73 183.92 148.06 C 183.92 147.35 183.90 145.92 183.90 145.21 C 187.71 141.80 192.90 140.76 197.19 138.11 Z" />
<path fill="#000000" opacity="1.00" d=" M 44.28 139.09 C 46.15 138.73 48.80 136.63 50.03 139.16 C 50.50 141.65 50.55 144.27 50.00 146.75 C 48.36 148.89 45.61 149.83 43.88 151.92 C 42.59 153.75 40.14 153.48 38.22 153.09 C 35.51 150.81 35.40 146.98 35.84 143.74 C 36.38 143.81 37.47 143.95 38.01 144.03 C 38.25 146.34 38.45 148.68 39.32 150.86 C 42.31 151.22 43.51 147.98 45.90 146.87 C 48.42 146.02 47.65 143.18 47.83 141.15 C 44.08 141.50 40.64 143.57 36.81 143.22 C 37.53 139.85 41.71 140.14 44.28 139.09 Z" />
<path fill="#000000" opacity="1.00" d=" M 207.96 145.90 C 211.38 143.85 215.14 141.87 219.21 141.74 C 218.65 144.62 215.12 144.60 213.24 146.29 C 210.54 148.64 207.37 150.68 203.77 151.25 C 203.43 148.56 206.28 147.40 207.96 145.90 Z" />
<path fill="#000000" opacity="1.00" d=" M 70.94 154.83 C 79.13 149.97 88.71 148.36 97.05 143.77 C 97.63 144.10 98.80 144.76 99.39 145.09 C 94.72 148.75 88.69 150.26 83.20 152.35 C 76.67 153.74 71.48 159.53 64.43 158.33 C 63.52 159.26 62.62 160.20 61.73 161.15 C 60.60 161.12 59.47 161.09 58.34 161.05 C 59.40 163.19 59.50 165.55 59.14 167.88 C 54.28 169.44 49.60 173.40 44.27 172.04 C 41.79 170.38 40.95 167.38 40.08 164.71 C 39.50 163.11 39.15 159.80 41.84 160.95 C 42.82 163.70 43.23 166.71 44.85 169.20 C 46.90 170.75 49.34 168.92 51.37 168.25 C 53.11 167.37 55.34 167.11 56.69 165.61 C 56.80 162.97 55.31 160.58 54.64 158.08 C 50.87 159.97 47.37 163.35 42.77 162.20 C 43.16 159.65 46.10 159.81 47.92 158.80 C 50.59 157.90 52.66 154.64 55.77 155.93 C 56.91 157.00 57.50 158.48 58.22 159.84 C 60.15 158.90 61.72 157.44 63.32 156.04 C 65.81 155.34 68.63 156.23 70.94 154.83 Z" />
<path fill="#000000" opacity="1.00" d=" M 301.66 157.60 C 305.71 154.81 309.89 152.20 314.16 149.75 L 315.02 149.97 C 315.93 152.61 312.57 153.83 310.80 154.90 C 307.06 156.53 304.24 160.58 299.82 160.27 C 300.09 159.13 300.70 158.24 301.66 157.60 Z" />
<path fill="#000000" opacity="1.00" d=" M 237.58 155.44 C 242.98 152.62 249.18 154.04 255.00 153.68 C 261.97 153.03 268.42 156.37 274.43 159.46 C 276.63 160.77 279.45 161.99 280.02 164.77 C 276.66 166.36 275.38 170.27 272.59 172.60 C 269.37 175.25 265.83 177.73 261.89 179.16 C 256.09 179.49 249.61 180.05 244.66 176.40 C 240.17 172.41 236.29 167.59 233.75 162.12 C 232.07 159.34 235.11 156.40 237.58 155.44 M 236.13 158.42 C 236.49 160.98 239.27 161.80 241.11 163.11 C 242.32 160.48 243.99 158.10 245.93 155.96 C 242.55 156.30 239.43 157.72 236.13 158.42 M 247.18 156.07 C 248.37 158.25 249.49 160.47 250.49 162.75 C 252.19 162.55 254.48 163.36 255.61 161.64 C 257.03 159.76 258.24 157.71 259.99 156.09 C 255.72 156.37 251.44 156.41 247.18 156.07 M 262.36 156.83 C 262.91 159.21 263.66 161.53 264.35 163.87 C 267.08 164.08 268.43 161.28 270.87 160.57 C 268.47 158.55 265.14 158.15 262.36 156.83 M 256.96 163.99 C 254.99 166.09 251.73 165.34 249.19 165.07 C 247.70 163.58 247.08 161.45 245.97 159.70 C 244.58 161.58 244.16 163.89 243.96 166.17 C 241.68 166.56 239.80 165.03 237.82 164.21 C 240.27 167.98 242.99 171.68 246.46 174.59 C 249.00 175.10 251.10 172.83 253.52 172.35 C 258.59 171.34 263.71 170.34 268.92 170.72 C 271.03 170.98 272.20 168.90 273.74 167.83 C 272.32 166.61 272.40 164.23 270.96 163.22 C 269.62 163.75 268.83 165.12 267.72 165.98 C 265.90 166.68 263.92 166.18 262.05 166.13 C 261.37 163.80 260.79 161.43 260.70 158.99 C 259.29 160.54 258.48 162.55 256.96 163.99 M 274.16 162.46 C 273.04 163.24 274.16 165.53 275.41 164.50 C 276.51 163.72 275.38 161.54 274.16 162.46 M 256.27 174.50 C 254.35 174.85 252.11 175.03 250.96 176.84 C 256.40 176.56 263.06 177.86 267.02 173.09 C 263.37 173.00 259.86 174.11 256.27 174.50 Z" />
<path fill="#000000" opacity="1.00" d=" M 318.05 161.33 C 321.49 159.02 325.09 156.56 329.22 155.74 C 329.86 158.79 326.40 159.37 324.44 160.55 C 322.24 161.36 320.51 164.01 317.96 163.07 C 317.98 162.64 318.02 161.76 318.05 161.33 Z" />
</g>
</svg>
