<svg xmlns="http://www.w3.org/2000/svg" width="50" height="50" viewBox="0 0 50 50">
  <path id="Path_148" data-name="Path 148" d="M3.125,6.25A24.608,24.608,0,0,1-3.53,5.357,25,25,0,0,1-9.5,2.832a25.113,25.113,0,0,1-5.05-3.906,25.113,25.113,0,0,1-3.906-5.05A25,25,0,0,1-20.982-12.1a24.608,24.608,0,0,1-.893-6.655,24.608,24.608,0,0,1,.893-6.655,25,25,0,0,1,2.525-5.971,25.114,25.114,0,0,1,3.906-5.05A25.114,25.114,0,0,1-9.5-40.332,25,25,0,0,1-3.53-42.857a24.608,24.608,0,0,1,6.655-.893,24.608,24.608,0,0,1,6.655.893,25,25,0,0,1,5.971,2.525,25.114,25.114,0,0,1,5.05,3.906,25.114,25.114,0,0,1,3.906,5.05A25,25,0,0,1,27.232-25.4a24.608,24.608,0,0,1,.893,6.655,24.608,24.608,0,0,1-.893,6.655,25,25,0,0,1-2.525,5.971A25.114,25.114,0,0,1,20.8-1.074a25.113,25.113,0,0,1-5.05,3.906A25,25,0,0,1,9.78,5.357,24.608,24.608,0,0,1,3.125,6.25Zm0-46.429A20.7,20.7,0,0,0-5.2-38.491a21.787,21.787,0,0,0-6.808,4.6,21.787,21.787,0,0,0-4.6,6.808A20.7,20.7,0,0,0-18.3-18.75a20.7,20.7,0,0,0,1.688,8.329,21.787,21.787,0,0,0,4.6,6.808A21.787,21.787,0,0,0-5.2.991,20.7,20.7,0,0,0,3.125,2.679,20.7,20.7,0,0,0,11.454.991a21.787,21.787,0,0,0,6.808-4.6,21.788,21.788,0,0,0,4.6-6.808,20.7,20.7,0,0,0,1.688-8.329,20.7,20.7,0,0,0-1.688-8.329,21.788,21.788,0,0,0-4.6-6.808,21.787,21.787,0,0,0-6.808-4.6A20.7,20.7,0,0,0,3.125-40.179Zm0,21.429V-33.036H-.446v17.857H13.839V-18.75Z" transform="translate(21.875 43.75)" fill="#fff"/>
</svg>
