<svg xmlns="http://www.w3.org/2000/svg" width="50" height="50" viewBox="0 0 50 50">
  <path id="Path_14" data-name="Path 14" d="M18.786-25.738q0,.221.012.442t.012.442q0,.221-.012.442t-.012.442l6.361,3.954-3.9,9.406-7.294-1.67q-.589.639-1.228,1.228l1.67,7.294L4.984.146,1.031-6.214q-.221,0-.442.012t-.442.012q-.221,0-.442-.012t-.442-.012L-4.691.146l-9.406-3.9,1.67-7.294q-.639-.589-1.228-1.228l-7.294,1.67-3.9-9.406,6.361-3.954q0-.221-.012-.442t-.012-.442q0-.221.012-.442t.012-.442l-6.361-3.954,3.9-9.406,7.294,1.67q.589-.639,1.228-1.228l-1.67-7.294,9.406-3.9,3.954,6.361q.221,0,.442-.012t.442-.012q.221,0,.442.012t.442.012l3.954-6.361,9.406,3.9-1.67,7.294q.639.589,1.228,1.228l7.294-1.67,3.9,9.406Zm-2.873,3.193q.049-.589.1-1.167t.049-1.167q0-.565-.049-1.154t-.1-1.154l5.8-3.61L19.6-35.9l-6.655,1.547a21.34,21.34,0,0,0-1.559-1.719q-.8-.786-1.731-1.572L11.2-44.3,6.09-46.415l-3.635,5.8-1.154-.1q-.589-.049-1.154-.049-.589,0-1.167.049l-1.167.1-3.61-5.8L-10.9-44.3l1.547,6.655a21.337,21.337,0,0,0-1.719,1.559q-.786.8-1.572,1.731L-19.3-35.9-21.415-30.8l5.8,3.635q-.049.589-.1,1.167t-.049,1.167q0,.565.049,1.154t.1,1.154l-5.8,3.61L-19.3-13.8l6.655-1.547a21.336,21.336,0,0,0,1.559,1.719q.8.786,1.731,1.572L-10.9-5.4-5.8-3.292l3.635-5.8,1.154.1q.589.049,1.154.049.589,0,1.167-.049l1.167-.1,3.61,5.8L11.2-5.4,9.65-12.059a21.338,21.338,0,0,0,1.719-1.559q.786-.8,1.572-1.731L19.6-13.8l2.112-5.108ZM.146-34.087a9,9,0,0,1,3.6.724,9.317,9.317,0,0,1,2.935,1.977,9.317,9.317,0,0,1,1.977,2.935,9,9,0,0,1,.724,3.6,9,9,0,0,1-.724,3.6,9.317,9.317,0,0,1-1.977,2.935,9.317,9.317,0,0,1-2.935,1.977,9,9,0,0,1-3.6.724,9,9,0,0,1-3.6-.724,9.317,9.317,0,0,1-2.935-1.977,9.317,9.317,0,0,1-1.977-2.935,9,9,0,0,1-.724-3.6,9,9,0,0,1,.724-3.6,9.317,9.317,0,0,1,1.977-2.935,9.317,9.317,0,0,1,2.935-1.977A9,9,0,0,1,.146-34.087Zm0,15.717a6.372,6.372,0,0,0,2.529-.5,6.494,6.494,0,0,0,2.063-1.388,6.494,6.494,0,0,0,1.388-2.063,6.372,6.372,0,0,0,.5-2.529,6.372,6.372,0,0,0-.5-2.529,6.494,6.494,0,0,0-1.388-2.063,6.494,6.494,0,0,0-2.063-1.388,6.372,6.372,0,0,0-2.529-.5,6.372,6.372,0,0,0-2.529.5,6.494,6.494,0,0,0-2.063,1.388,6.494,6.494,0,0,0-1.388,2.063,6.372,6.372,0,0,0-.5,2.529,6.372,6.372,0,0,0,.5,2.529,6.494,6.494,0,0,0,1.388,2.063,6.494,6.494,0,0,0,2.063,1.388A6.372,6.372,0,0,0,.146-18.37Z" transform="translate(24.854 49.854)" fill="#e4e4e4"/>
</svg>
